<svg width="1440" height="165" viewBox="0 0 1440 165" fill="none" xmlns="http://www.w3.org/2000/svg">
  <g clip-path="url(#clip0_27_39)">
    <path opacity="0.25" d="M1440 165V101.351C1382.65 70.8262 1315.69 57.1175 1250.4 62.8512C1165.97 70.235 1086.8 108.652 1002.24 114.414C913.632 120.409 825.192 91.2037 740.4 65.9312C657.276 41.1812 574.44 31.7212 489.12 47.9462C445.74 56.1962 405.3 72.4762 363.78 88.2887C252.612 130.625 104.4 184.649 0 92.8537V165L1440 165Z" fill="white"/>
    <path opacity="0.5" d="M1440 165V143.261C1424.4 114.235 1406.83 86.8175 1382.77 65.9312C1320.71 12.0037 1242 12.375 1170.5 39.0775C1133.12 53.0337 1098.4 74.9238 1062.9 93.8025C1013.8 119.928 961.224 157.053 905.904 162.099C862.392 166.018 820.824 149.146 787.584 118.704C749.46 83.7925 712.8 33.4538 663.228 18.3288C614.7 3.49251 565.608 27.5275 520.272 51.7138C474.936 75.9 430.08 105.339 379.968 110.908C308.292 118.951 244.032 79.4475 177.288 57.5025C141.048 45.595 106.488 49.0188 72.78 67.815C45.864 82.7887 15.1799 104.844 0 135.52V165L1440 165Z" fill="white"/>
    <path d="M1440 165V157.259C1260.08 83.875 1063.09 66.935 869.004 106.466C817.404 116.971 767.928 134.131 715.872 142.849C645.072 154.715 580.896 126.019 517.2 94.1737C446.484 58.8225 376.8 34.045 298.56 41.25C194.724 50.875 91.6079 104.101 0 157.864V165L1440 165Z" fill="#F4F4F4"/>
  </g>
  <defs>
    <clipPath id="clip0_27_39">
      <rect width="1440" height="165" fill="white" transform="translate(1440 165) rotate(-180)"/>
    </clipPath>
  </defs>
</svg>
