<svg width="736" height="560" viewBox="0 0 736 560" fill="none" xmlns="http://www.w3.org/2000/svg">
  <path fill-rule="evenodd" clip-rule="evenodd" d="M53.4603 409.624C69.6602 347.013 233.584 382.682 341.051 363.325C448.517 343.969 575.659 253.822 659.804 297.98C743.949 342.139 654.42 448.883 461.428 472.971C268.436 497.06 37.2603 472.236 53.4603 409.624Z" fill="#F2F2F2"/>
  <g opacity="0.5">
    <path fill-rule="evenodd" clip-rule="evenodd" d="M94.908 63.6723C93.335 65.2428 93.946 70.8243 93.9131 72.8899C93.8625 76.1054 94.0626 79.2923 94.3314 82.4963C94.5115 84.6416 95.5269 105.114 98.3526 103.542C99.9455 102.656 98.9468 96.7335 98.9441 94.8603C98.9376 90.6959 98.7644 86.5416 98.4867 82.3864C98.2286 78.5288 98.0666 74.7162 98.2151 70.8512C98.2513 69.9079 99.134 59.4388 94.908 63.6723Z" fill="#89C5CC"/>
    <path fill-rule="evenodd" clip-rule="evenodd" d="M163.409 61.1487C149.896 61.2562 136.388 61.9228 122.881 62.3311C116.381 62.5277 109.886 62.7775 103.394 63.1377C101.181 63.2605 96.4362 62.5523 94.593 63.731C90.5013 66.3482 97.1001 66.9601 98.8593 66.8961C125.59 65.9268 152.329 64.6502 179.082 64.59C192.206 64.5608 205.323 64.9344 218.448 64.8505C223.465 64.8185 229.02 62.657 230.287 68.4967C231.717 75.0864 230.074 82.4234 229.627 89.0451C229.329 93.4654 229.435 97.7939 229.634 102.211C229.762 105.04 229.429 108.228 229.93 111.005C230.411 113.679 232.333 115.282 234.095 112.287C235.148 110.497 234.624 106.078 234.694 104.005C234.788 101.213 234.7 98.4211 234.7 95.6283C234.699 88.8114 235.661 82.0215 235.534 75.206C235.452 70.8112 235.219 62.8438 229.676 61.7879C223.572 60.6248 216.069 61.7944 209.822 61.723C194.344 61.5464 178.892 61.0277 163.409 61.1487Z" fill="#89C5CC"/>
    <path fill-rule="evenodd" clip-rule="evenodd" d="M126.174 103.786C121.078 103.786 115.982 103.817 110.887 103.901C106.517 103.973 99.6467 103.063 95.5795 104.626C92.7952 105.696 92.0556 108.805 95.5795 109.633C99.4229 110.536 105.215 109.059 109.237 108.988C129.4 108.632 149.758 108.168 169.894 109.444C188.762 110.638 207.993 111.797 226.888 110.536C228.478 110.43 236.586 110.107 232.886 107.068C230.728 105.294 221.979 106.46 219.174 106.375C209.28 106.077 199.376 106.011 189.485 105.636C179.723 105.265 170.004 104.168 160.238 103.896C148.893 103.58 137.523 103.786 126.174 103.786Z" fill="#89C5CC"/>
    <path fill-rule="evenodd" clip-rule="evenodd" d="M121.075 74.8039C129.017 75.1506 136.875 86.6687 128.839 92.2354C121.3 97.4586 107.172 91.7343 111.364 81.6059C110.761 83.0702 112.126 80.015 112.143 79.9946C112.94 79.0555 114.371 78.0158 115.354 77.2755C116.478 76.4282 117.649 75.4955 119.005 75.0709C119.895 74.7923 119.755 75.8408 121.075 74.8039ZM117.207 70.6496C113.49 72.101 111.794 73.7382 109.239 76.7007C107.472 78.751 105.219 79.8296 105.239 82.6002C105.243 83.2135 106.031 83.8875 106.167 84.478C106.355 85.2943 106.137 86.3401 106.286 87.2073C107.824 96.1565 118.501 99.1737 126.317 97.4841C133.125 96.0123 138.217 89.4769 136.64 82.3703C135.052 75.2165 124.444 67.8193 117.207 70.6496Z" fill="#89C5CC"/>
    <path fill-rule="evenodd" clip-rule="evenodd" d="M113.896 83.1427C113.896 86.362 118.982 86.362 118.982 83.1427C118.982 79.96 113.896 79.8233 113.896 83.1427Z" fill="#89C5CC"/>
    <path fill-rule="evenodd" clip-rule="evenodd" d="M120.258 82.491C120.258 85.0493 124.299 85.0493 124.299 82.491C124.299 79.962 120.258 79.854 120.258 82.491Z" fill="#89C5CC"/>
    <path fill-rule="evenodd" clip-rule="evenodd" d="M121.51 87.7668C120.216 88.2641 118.574 87.2328 117.512 87.9123C115.631 89.1166 117.517 90.2064 118.525 90.6903C123.066 92.869 123.873 86.8615 121.51 87.7668Z" fill="#89C5CC"/>
    <path fill-rule="evenodd" clip-rule="evenodd" d="M190.85 80.6318C190.714 80.6893 190.233 80.8932 190.85 80.6318V80.6318ZM171.078 77.7421C167.679 78.5092 164.81 81.6826 161.118 81.258C158.289 80.9326 156.373 78.2024 153.58 77.8056C150.007 77.2975 140.282 85.4484 145.395 86.8469C148.378 87.6632 150.033 82.212 152.668 81.9223C154.753 81.6933 157.588 84.2497 159.748 84.6136C163.778 85.2927 166.546 83.0728 170.083 81.6414C173.928 80.0857 176.115 81.4865 179.458 83.2156C182.097 84.5802 184.583 85.4688 187.602 84.9056C190.436 84.3777 193.997 81.4634 196.849 81.7624C199.643 82.0553 201.637 84.971 204.511 85.2417C205.696 85.3529 207.46 85.7567 207.261 83.9285C207.101 82.4646 205.468 82.7126 204.446 82.1805C201.818 80.8121 199.36 78.3882 196.189 78.595C193.803 78.7507 191.631 80.4269 189.433 81.2288C182.233 83.8548 178.185 76.1479 171.078 77.7421Z" fill="#89C5CC"/>
    <path fill-rule="evenodd" clip-rule="evenodd" d="M177.092 124.111C163.204 124.239 149.268 124.445 135.419 125.558C132.135 125.822 98.6082 128.988 98.6718 129.216C98.7893 129.637 103.102 130.282 103.075 130.381C102.784 129.661 102.12 129.362 101.082 129.487C132.879 129.487 164.576 126.64 196.416 127.152C204.416 127.28 212.446 127.227 220.441 127.479C222.436 127.542 227.382 128.972 228.949 128.071C233.063 125.706 225.589 125.433 224.352 125.333C208.683 124.08 192.805 123.954 177.092 124.111Z" fill="#69A1AC"/>
    <path fill-rule="evenodd" clip-rule="evenodd" d="M94.5557 130.859C92.4794 132.941 94.3914 140.43 94.4731 143.245C94.5915 147.314 94.494 151.412 94.851 155.471C95.2587 160.107 95.891 165.047 97.1074 169.545C97.7774 172.023 100.129 175.961 101.061 171.458C101.726 168.242 100.716 163.976 100.364 160.7C99.8941 156.317 99.7803 151.992 99.7627 147.587C99.7469 143.75 99.6731 139.896 99.3583 136.071C99.1949 134.084 98.1957 127.238 94.5557 130.859Z" fill="#69A1AC"/>
    <path fill-rule="evenodd" clip-rule="evenodd" d="M146.794 168.998C136.938 169.167 127.061 169.4 117.222 170.015C113.189 170.268 109.159 170.644 105.142 171.07C104.322 171.157 95.2467 171.525 99.3017 174.874C101.132 176.387 108.661 174.296 111.148 174.078C115.33 173.711 119.511 173.473 123.706 173.296C133.424 172.883 143.172 172.519 152.9 172.687C170.667 172.996 188.319 173.133 206.09 172.737C208.615 172.681 228.396 173.209 229.068 170.583C229.609 168.466 222.535 169.437 221.245 169.475C216.514 169.617 211.782 169.584 207.049 169.56C186.997 169.457 166.83 168.659 146.794 168.998Z" fill="#69A1AC"/>
    <path fill-rule="evenodd" clip-rule="evenodd" d="M225.719 127.347C226.032 136.122 227.526 144.887 228.004 153.689C228.222 157.712 228.479 161.732 228.676 165.757C228.74 167.055 228.217 170.184 229.752 170.931C231.858 171.955 232.142 169.891 232.536 168.495C233.675 164.462 232.904 159.223 232.801 155.081C232.701 151.07 232.694 147.051 232.398 143.047C232.095 138.956 231.272 134.943 230.889 130.867C230.728 129.143 231.293 126.274 229.463 125.204C227.881 124.279 225.65 125.445 225.719 127.347Z" fill="#69A1AC"/>
    <path fill-rule="evenodd" clip-rule="evenodd" d="M128.845 141.944C128.882 141.973 128.919 142.002 128.957 142.031C128.919 142.002 128.882 141.973 128.845 141.944ZM120.469 139.344C123.592 140.236 126.157 139.904 129.141 142.177C131.614 144.063 134.151 146.821 134.971 149.869C136.867 156.911 130.441 160.771 124.418 160.847C118.248 160.924 109.115 159.493 109.431 151.585C109.674 145.509 114.111 139.58 120.469 139.344ZM120.689 135.364C112.59 135.767 106.057 144.863 106.127 152.518C106.212 161.797 116.725 164.188 124.194 164.252C132.623 164.324 141.028 158.504 138.77 149.025C136.96 141.431 128.477 134.959 120.689 135.364Z" fill="#69A1AC"/>
    <path fill-rule="evenodd" clip-rule="evenodd" d="M112.542 147.822C112.542 150.41 116.63 150.41 116.63 147.822C116.63 145.265 112.542 145.155 112.542 147.822Z" fill="#69A1AC"/>
    <path fill-rule="evenodd" clip-rule="evenodd" d="M121.117 146.687C121.117 149.295 125.238 149.295 125.238 146.687C125.238 144.109 121.117 143.998 121.117 146.687Z" fill="#69A1AC"/>
    <path fill-rule="evenodd" clip-rule="evenodd" d="M116.39 152.589C113.729 155.245 123.076 159.902 125.281 156.207C127.092 153.171 123.149 154.178 121.752 154.014C120.233 153.835 117.629 151.352 116.39 152.589Z" fill="#69A1AC"/>
    <path fill-rule="evenodd" clip-rule="evenodd" d="M191.124 146.74C190.868 146.848 190.868 146.848 191.124 146.74V146.74ZM156.022 142.416C153.328 142.921 144.486 145.904 144.367 149.1C144.148 154.91 152.808 148.959 154.688 148.195C159.796 146.119 162.48 150.354 167.612 150.577C172.068 150.771 176.166 146.957 180.364 147.408C184.763 147.881 186.879 152.56 191.956 150.076C194.643 148.761 194.575 146.735 191.559 146.544C189.737 146.429 188.484 147.182 186.584 146.398C183.612 145.172 182.415 143.176 178.859 143.493C176.175 143.733 173.75 145.245 171.13 145.831C165.132 147.171 161.805 141.332 156.022 142.416Z" fill="#69A1AC"/>
    <path fill-rule="evenodd" clip-rule="evenodd" d="M211.818 149.263C211.632 149.341 211.632 149.341 211.818 149.263V149.263ZM212.497 146.844C212.527 146.857 212.73 147.139 212.497 146.844V146.844ZM209.409 144.997C209.293 145.087 209.293 145.087 209.409 144.997V144.997ZM209.476 144.974C210.075 145.333 214.89 148.625 211.393 149.401C209.617 149.794 208.148 146.222 209.476 144.974ZM207.882 141.327C200.169 144.844 208.469 157.429 214.522 152.315C217.069 150.164 217.404 145.815 214.926 143.573C213.442 142.23 209.897 140.406 207.882 141.327Z" fill="#69A1AC"/>
    <path fill-rule="evenodd" clip-rule="evenodd" d="M135.477 190.921C125.852 190.924 116.143 190.722 106.531 191.292C104.914 191.388 98.7518 191.08 97.9184 192.771C96.3937 195.864 102.734 194.329 103.655 194.236C122.793 192.32 142.784 193.423 161.985 193.969C177.689 194.415 193.308 194.692 208.993 195.502C213.116 195.714 217.235 195.949 221.355 196.198C222.698 196.279 226.077 197.169 226.361 195.024C226.623 193.039 222.407 193.487 221.354 193.432C212.979 192.991 204.61 192.529 196.237 192.058C176.085 190.922 155.661 190.917 135.477 190.921Z" fill="#89C5CC"/>
    <path fill-rule="evenodd" clip-rule="evenodd" d="M97.6094 194.36C95.8117 196.147 96.6543 202.971 96.6042 205.226C96.5164 209.171 96.3303 213.113 96.2467 217.056C96.1599 221.178 96.2806 225.319 96.5243 229.435C96.6265 231.163 98.0449 239.515 100.278 234.735C101.276 232.599 100.254 226.65 100.269 224.23C100.297 219.826 100.534 215.44 100.753 211.041C100.942 207.26 100.949 203.475 101.114 199.693C101.166 198.487 101.309 190.649 97.6094 194.36Z" fill="#89C5CC"/>
    <path fill-rule="evenodd" clip-rule="evenodd" d="M227.98 229.595C218.613 230.555 209.096 230.102 199.694 230.811C191.591 231.422 183.495 231.672 175.371 231.844C156.975 232.232 138.547 232.611 120.204 234.144C116.024 234.493 111.849 234.864 107.657 235.051C105.561 235.144 96.7643 234.19 96.1092 236.4C94.9935 240.164 104.4 238.674 106.429 238.615C110.891 238.487 115.332 238.164 119.781 237.825C138.485 236.4 157.259 235.974 176.003 235.382C186.196 235.06 196.319 234.314 206.49 233.636C211.56 233.298 216.643 233.287 221.712 232.959C223.039 232.873 227.734 233.042 228.688 231.975C229.343 231.242 229.509 229.453 227.98 229.595Z" fill="#89C5CC"/>
    <path fill-rule="evenodd" clip-rule="evenodd" d="M224.805 195C225.126 203.983 225.634 212.958 225.937 221.94C226.028 224.641 225.212 229.482 226.716 231.864C229.135 235.695 231.023 231.641 231.466 229.254C232.863 221.721 231.361 213.4 230.97 205.82C230.822 202.929 231.719 196.493 230.322 193.905C228.991 191.44 224.686 191.687 224.805 195Z" fill="#89C5CC"/>
    <path fill-rule="evenodd" clip-rule="evenodd" d="M209.079 207.794C212.668 208.766 213.192 216.567 209.143 217.145C203.116 218.003 205.752 209.402 209.079 207.794ZM208.074 204.691C206.979 204.657 204.453 204.355 203.778 205.246C203.214 205.992 203.784 207.565 203.718 208.275C203.481 210.813 201.417 212.279 202.34 215.276C202.966 217.31 204.643 219.221 206.687 219.927C217.472 223.655 217.341 202.816 208.074 204.691Z" fill="#89C5CC"/>
    <path fill-rule="evenodd" clip-rule="evenodd" d="M110.702 206.091C110.675 206.125 110.648 206.159 110.622 206.194C110.648 206.159 110.675 206.125 110.702 206.091ZM119.173 201.584C119.131 201.223 119.088 200.862 119.046 200.501C124.894 203.261 129.547 208.396 127.605 215.288C126.124 220.546 120.771 222.411 115.784 221.113C110.264 219.675 107.626 215.125 109.114 209.538C109.801 206.96 111.909 203.496 114.635 202.667C115.904 202.281 118.71 203.265 119.173 201.584ZM115.753 199.401C114.274 199.501 112.834 200.117 111.627 200.96C112.757 200.004 114.263 199.435 115.753 199.401ZM115.796 196.005C112.142 196.117 109.747 198.329 107.58 200.985C106.9 201.819 104.6 204.03 104.885 205.153C105.11 206.042 105.699 207.34 106.94 206.35C100.442 219.3 117.228 230.346 127.475 221.34C137.038 212.936 127.55 195.611 115.796 196.005Z" fill="#89C5CC"/>
    <path fill-rule="evenodd" clip-rule="evenodd" d="M112.476 208.035C112.476 209.759 115.153 209.759 115.153 208.035C115.153 206.31 112.476 206.31 112.476 208.035Z" fill="#89C5CC"/>
    <path fill-rule="evenodd" clip-rule="evenodd" d="M117.044 208.329C117.044 210.081 119.764 210.081 119.764 208.329C119.764 206.576 117.044 206.576 117.044 208.329Z" fill="#89C5CC"/>
    <path fill-rule="evenodd" clip-rule="evenodd" d="M119.117 214.484C117.845 214.587 113.187 214.155 112.369 215.269C111.003 217.132 113.183 217.197 114.254 217.398C115.219 217.579 119.413 217.477 120.004 216.62C120.526 215.863 120.404 214.374 119.117 214.484Z" fill="#89C5CC"/>
    <path fill-rule="evenodd" clip-rule="evenodd" d="M175.241 209.653C175.022 209.743 175.022 209.743 175.241 209.653V209.653ZM157.64 208.366C154.773 208.577 152.344 210.226 149.602 210.884C146.676 211.587 145.409 210.295 142.748 209.449C139.98 208.569 138.011 208.917 135.786 210.807C134.526 211.878 131.76 214.344 132.548 216.247C134.352 220.602 138.436 213.516 140.357 213.186C143.353 212.672 146.019 215.292 149.475 214.543C152.606 213.864 155.384 211.714 158.654 211.691C161.389 211.671 163.966 213.168 166.666 213.53C170.788 214.083 173.494 212.619 177.304 211.533C180.608 210.591 182.924 211.833 186.032 212.878C187.452 213.355 192.191 215.091 191.319 211.943C191.072 211.054 184.827 209.464 183.859 209.158C180.445 208.08 178.283 208.5 175.03 209.74C172.318 210.775 170.036 211.279 167.128 210.71C163.924 210.082 161.01 208.11 157.64 208.366Z" fill="#89C5CC"/>
  </g>
  <g opacity="0.5">
    <path fill-rule="evenodd" clip-rule="evenodd" d="M289.575 64.0119C290.038 54.0554 290.674 44.1129 291.009 34.1504C291.176 29.2137 291.306 24.2765 291.432 19.3388C291.459 18.2393 291.488 17.1403 291.513 16.0408C291.594 12.3056 291.151 12 294.91 11.6685C311.679 10.1883 328.515 9.69767 345.304 8.35845C365.553 6.74333 385.907 5.62809 406.213 5.1282C415.236 4.90562 424.298 4.44468 433.323 4.72523C435.322 4.78737 439.247 4.26708 440.035 5.82146C440.375 6.49292 439.661 8.80362 439.571 9.57849C439.288 11.9991 439.024 14.428 438.861 16.8607C437.901 31.2081 438.473 45.9172 441.251 60.0471C434.734 56.3722 426.5 53.211 418.904 53.8384C411.16 54.4779 405.367 58.9523 399.168 63.0705C395.662 65.3998 394.481 66.0124 390.983 63.7559C387.968 61.8111 385.116 59.5876 382.272 57.4053C377.883 54.0373 373.741 50.3856 369.485 46.8548C361.66 40.3628 350.878 31.1223 340.07 33.8429C332.348 35.7868 325.218 40.0308 318.516 44.1843C308.558 50.355 299.545 57.9117 289.575 64.0119ZM423.779 0.303692C385.306 0.303692 347.121 4.03337 308.756 6.051C304.749 6.26153 300.756 6.57175 296.764 6.9571C294.103 7.214 287.596 6.13539 285.852 8.409C284.688 9.92582 285.688 10.1535 285.852 11.5947C286.058 13.4111 285.936 15.5632 285.883 17.4858C285.755 22.1183 285.62 26.7504 285.515 31.3834C285.118 48.8933 284.869 66.4 285.578 83.9053C285.733 87.7231 287.124 93.009 286.363 96.7188C285.812 99.4046 283.97 101.039 288.218 101.535C292.398 102.024 297.509 100.781 301.693 100.384C305.901 99.9829 310.108 99.5484 314.321 99.201C332.638 97.6916 351.133 97.9198 369.499 97.4181C388.029 96.9121 406.567 96.8797 425.104 96.8695C432.86 96.8653 441.723 97.3012 449.291 95.1667C451.953 94.4155 452.384 94.0454 451.727 91.4036C451.603 90.9024 450.799 90.7173 450.563 89.8112C450.242 88.5782 450.407 87.0795 450.332 85.7959C450.087 81.6039 450.001 77.4045 449.804 73.2097C449.474 66.2011 448.266 59.3993 447.372 52.4612C446.341 44.4486 446.394 36.3132 446.373 28.2482C446.361 23.7747 446.476 19.3161 446.835 14.8551C447.066 11.994 448.475 7.72223 447.76 5.05401C447.404 3.72546 446.822 2.67189 445.439 2.10013C444.563 1.7375 443.826 2.0213 442.96 1.92948C441.933 1.82051 441.292 1.67629 440.062 1.3976C434.789 0.202601 429.151 0.303692 423.779 0.303692Z" fill="#69A1AC"/>
    <path fill-rule="evenodd" clip-rule="evenodd" d="M402.487 19.3524C402.484 22.1408 402.049 26.2553 403.335 28.8809C404.965 32.2113 407.005 31.1703 407.545 28.0406C407.855 26.2474 407.847 20.9407 407.271 19.3524C406.456 17.1043 402.487 15.5731 402.487 19.3524Z" fill="#89C5CC"/>
    <path fill-rule="evenodd" clip-rule="evenodd" d="M407.165 20.4291C404.548 20.5214 396.924 19.893 395.153 21.9979C392.115 25.6079 397.404 26.2474 399.675 26.0452C402.303 25.8115 410.423 26.3818 412.183 24.2747C415.127 20.7495 409.224 20.354 407.165 20.4291Z" fill="#89C5CC"/>
    <path fill-rule="evenodd" clip-rule="evenodd" d="M305.583 113.579C317.091 115.578 313.511 133.125 302.621 129.061C298.827 127.644 293.237 123.552 295.334 118.731C296.9 115.129 302.006 113.236 305.583 113.579ZM300.818 108.124C293.334 109.384 288.217 117.483 290.783 124.548C293.259 131.363 302.648 136.354 309.573 133.905C316.183 131.566 319.481 122.771 317.253 116.337C314.924 109.615 307.338 107.026 300.818 108.124Z" fill="#89C5CC"/>
    <path fill-rule="evenodd" clip-rule="evenodd" d="M370.816 115.632C367.951 115.87 365.475 117.876 362.592 118.231C359.896 118.563 357.662 117.64 355.138 116.903C352.087 116.012 349.289 115.621 346.171 116.412C343.789 117.017 341.439 118.638 338.964 118.834C334.094 119.218 328.434 113.662 324.632 119.947C322.809 122.959 325.456 124.9 328.182 123.495C331.024 122.03 329.629 121.506 333.155 122.371C336.096 123.092 338.474 123.484 341.42 122.473C344.089 121.558 346.433 119.883 349.333 119.694C352.174 119.51 354.645 120.804 357.36 121.362C360.699 122.049 363.653 121.529 366.817 120.483C369.826 119.487 371.027 118.943 374.064 119.831C375.986 120.393 380.187 122.18 382.058 120.74C385.294 118.251 380.962 117.887 379.256 117.533C376.509 116.964 373.667 115.398 370.816 115.632Z" fill="#89C5CC"/>
    <path fill-rule="evenodd" clip-rule="evenodd" d="M436.384 113.959C436.407 113.977 436.43 113.995 436.452 114.012C436.43 113.995 436.406 113.977 436.384 113.959ZM433.571 113.371C437.754 113.64 442.277 121.26 436.735 121.531C432.834 121.721 428.469 115.049 433.571 113.371ZM432.984 107.136C419.758 110.829 425.804 129.477 438.562 127.323C444.357 126.344 446.321 119.631 444.405 114.661C443.582 112.527 441.978 110.727 440.061 109.499C438.647 108.592 434.601 106.686 432.984 107.136Z" fill="#89C5CC"/>
    <path fill-rule="evenodd" clip-rule="evenodd" d="M371.276 146.065C382.915 145.666 394.555 145.266 406.206 145.158C412.52 145.1 418.8 145.21 425.105 145.572C427.902 145.732 430.696 145.887 433.495 146.005C433.977 146.026 434.644 145.993 435.38 145.957C437.112 145.872 439.227 145.768 440.222 146.294C445.788 149.238 434.448 149.561 433.07 149.538C429.983 149.486 426.899 149.334 423.815 149.181C421.12 149.048 418.425 148.915 415.727 148.848C398.42 148.423 381.008 149.201 363.671 149.975C359.697 150.152 355.727 150.33 351.763 150.492C347.554 150.665 343.347 150.777 339.14 150.889C333.125 151.048 327.111 151.208 321.097 151.546C318.801 151.675 316.505 151.812 314.208 151.948C310.919 152.144 307.63 152.34 304.339 152.513C301.763 152.649 299.186 152.781 296.607 152.846C296.142 152.857 295.537 152.922 294.876 152.992L294.876 152.992H294.876C293.277 153.163 291.353 153.368 290.313 152.943C289.063 152.432 288.052 151.717 288.739 150.202C289.321 148.92 291.434 149.074 292.974 149.186C293.395 149.217 293.773 149.244 294.065 149.238C298.989 149.143 303.902 148.866 308.817 148.566C310.615 148.455 312.412 148.342 314.209 148.229L314.21 148.229L314.21 148.229L314.21 148.229L314.21 148.229C323.567 147.641 332.915 147.053 342.295 146.893C351.959 146.728 361.617 146.397 371.276 146.065ZM432.065 222.668L435.411 222.628C437.139 222.778 437.912 224.592 436.803 225.986C435.953 227.054 432.684 227.102 430.553 227.134C429.962 227.142 429.459 227.15 429.119 227.177C423.556 227.624 418.004 227.825 412.424 227.879C400.674 227.991 388.968 228.494 377.237 229.163C365.229 229.848 353.211 230.105 341.192 230.363H341.191C332.349 230.552 323.506 230.742 314.667 231.101C309.605 231.307 304.542 231.461 299.478 231.594C298.934 231.608 298.21 231.686 297.391 231.774C294.192 232.12 289.544 232.622 288.491 230.081C287.556 227.827 288.855 226.789 290.755 226.317C290.455 224.982 290.511 223.106 290.543 222.031C290.552 221.708 290.56 221.457 290.555 221.316C290.507 219.968 290.473 218.62 290.44 217.272C290.402 215.745 290.365 214.218 290.306 212.691C290.253 211.306 290.203 209.919 290.153 208.531C289.957 203.059 289.761 197.573 289.34 192.123C289.145 189.607 288.837 187.121 288.529 184.639C288.038 180.676 287.547 176.723 287.525 172.678C287.521 171.95 287.484 171.04 287.443 170.013C287.233 164.761 286.901 156.457 290.161 153.928C295.91 150.574 294.774 160.256 294.266 164.577C294.183 165.291 294.116 165.858 294.1 166.197C293.77 173.383 294.218 180.252 294.942 187.392C295.43 192.214 295.145 197.02 294.859 201.834C294.757 203.553 294.655 205.274 294.588 206.996C294.555 207.848 294.526 208.7 294.496 209.552C294.406 212.172 294.315 214.791 294.118 217.409C294.096 217.692 294.089 218.235 294.08 218.929C294.054 220.887 294.013 224.044 293.594 225.961C294.486 225.922 295.352 225.932 296.067 225.94C296.523 225.945 296.917 225.949 297.219 225.94C298.591 225.898 299.964 225.858 301.337 225.818C305.39 225.699 309.444 225.58 313.497 225.428C323.065 225.068 332.636 224.948 342.207 224.828C353.512 224.686 364.816 224.544 376.115 224.007C394.737 223.122 413.423 222.895 432.065 222.668ZM435.519 152.42C435.509 164.729 436.461 176.7 437.573 188.96C438.261 196.543 438.812 204.155 439.251 211.757C439.272 212.109 439.268 212.696 439.265 213.432V213.433C439.242 217.637 439.194 226.695 443.349 224.528C446.486 222.892 445.28 213.405 444.613 208.155L444.613 208.155C444.467 207.004 444.346 206.056 444.303 205.44C444.212 204.127 444.122 202.815 444.032 201.502C443.614 195.408 443.197 189.318 442.647 183.231L442.531 181.947C441.895 174.917 441.259 167.891 441.146 160.827C441.137 160.243 441.193 159.43 441.257 158.511C441.44 155.851 441.685 152.31 440.58 150.898C439.026 148.911 435.522 149.498 435.519 152.42Z" fill="#69A1AC"/>
    <path fill-rule="evenodd" clip-rule="evenodd" d="M371.808 182.595C386.674 175.869 401.714 169.065 417.174 164.22C418.291 163.87 418.998 165.022 418.744 165.989C418.482 166.985 416.064 167.835 414.46 168.399C413.98 168.568 413.573 168.711 413.319 168.824C411.16 169.789 408.995 170.741 406.83 171.694C404.613 172.669 402.396 173.645 400.185 174.633C395.587 176.687 390.985 178.733 386.383 180.778C381.454 182.968 376.526 185.158 371.602 187.36C371.416 187.443 371.229 187.527 371.043 187.61C377.737 189.989 384.393 192.474 391.02 195.035C393.285 195.909 395.542 196.803 397.799 197.696C399.075 198.201 400.352 198.706 401.631 199.208C402.047 199.371 402.772 199.593 403.643 199.859C406.481 200.725 410.871 202.066 411.196 203.42C411.724 205.626 405.662 203.492 403.375 202.687C403.072 202.58 402.835 202.497 402.689 202.45C399.314 201.371 395.98 200.17 392.648 198.968L392.186 198.802C389.545 197.851 386.908 196.889 384.271 195.927C379.119 194.049 373.968 192.17 368.788 190.368C368.056 190.113 367.323 189.859 366.59 189.606C358.278 193.34 349.982 197.109 341.714 200.938C337.28 202.992 332.871 205.093 328.473 207.222C327.513 207.687 326.325 208.405 325.033 209.186C321.939 211.056 318.255 213.282 315.721 213.227C314.362 213.197 313.446 212.906 313.304 211.259C313.158 209.559 315.339 208.668 316.907 208.027C317.282 207.873 317.622 207.734 317.887 207.602C322.587 205.251 327.316 202.96 332.059 200.698C341.479 196.205 350.987 191.891 360.529 187.663C360.583 187.639 360.638 187.615 360.693 187.59C355.401 185.799 350.095 184.051 344.777 182.34C344.246 182.169 343.157 181.867 341.726 181.471C334.965 179.599 320.563 175.61 321.204 173.28C321.939 170.615 335.442 175.486 341.419 177.643C342.54 178.047 343.396 178.356 343.854 178.502C351.001 180.779 358.128 183.121 365.218 185.57C367.411 184.584 369.608 183.591 371.808 182.595Z" fill="#89C5CC"/>
    <path fill-rule="evenodd" clip-rule="evenodd" d="M308.108 241.133C312.459 241.896 315.529 246.071 315.052 250.443C314.406 256.349 308.519 259.057 303.08 258.286C296.909 257.411 295.611 252.194 298.601 247.176C299.263 246.065 300.024 244.735 301.228 244.15C302.055 243.748 303.109 244.104 303.775 243.779C306.111 242.643 304.706 240.832 308.108 241.133ZM306.126 237.275C300.816 237.953 291.004 244.098 291.501 250.246C291.932 250.959 292.58 251.25 293.445 251.121C293.237 252.453 293.305 253.77 293.649 255.074C294.153 256.766 295.159 258.153 296.508 259.255C299.285 261.524 303.081 262.081 306.539 261.683C312.996 260.941 318.084 256.528 318.447 249.812C318.801 243.257 313.079 236.397 306.126 237.275Z" fill="#89C5CC"/>
    <path fill-rule="evenodd" clip-rule="evenodd" d="M331.846 245.275C329.463 246.537 325.694 248.477 324.297 250.875C322.821 253.408 324.349 256.179 327.459 254.981C329.928 254.03 331.498 251.008 334.132 250.039C336.456 249.184 337.392 249.62 339.849 250.471C342.38 251.348 344.592 252.196 347.328 251.981C350.767 251.71 353.745 249.716 357.111 249.263C359.945 248.881 362.282 249.983 364.996 250.422C368.145 250.931 370.204 249.739 373.15 249.118C375.154 248.696 378.686 250.414 380.148 249.771C383.434 248.326 379.957 246.56 378.138 245.976C375.073 244.993 373.187 245.86 370.272 246.676C367.107 247.561 365.74 246.895 362.714 246.083C356.593 244.438 351.864 248.415 346.062 247.692C340.691 247.022 337.476 242.293 331.846 245.275Z" fill="#89C5CC"/>
    <path fill-rule="evenodd" clip-rule="evenodd" d="M431.935 242.336C437.827 247.86 431.208 255.719 424.712 251.305C422.426 249.751 422.389 247.255 424.168 245.022C425.796 242.98 429.371 242.184 431.935 242.336ZM429.751 237.872C424.247 238.943 419.054 241.469 418.556 247.822C418.07 254.021 424.428 256.899 429.769 256.493C441.76 255.58 440.893 235.719 429.751 237.872Z" fill="#89C5CC"/>
  </g>
  <path opacity="0.5" fill-rule="evenodd" clip-rule="evenodd" d="M558.472 93.5829C554.098 93.6464 543.296 94.8405 541.69 98.724C540.471 101.672 544.092 101.025 546.033 99.952C548.658 98.5014 550.96 97.6333 554.214 97.192C566.606 95.5098 578.513 101.542 590.786 102.305C595.435 102.594 601.046 102.783 605.484 101.653C608.646 100.848 609.058 99.0934 605.451 98.8261C602.385 98.5991 598.994 99.3146 595.851 99.2942C582.848 99.2108 571.289 93.3994 558.472 93.5829Z" fill="#C1DEE2"/>
  <g opacity="0.5">
    <path fill-rule="evenodd" clip-rule="evenodd" d="M97.509 279.362C89.0848 279.456 80.6647 279.767 72.2572 280.299C64.2618 280.806 55.5867 280.421 47.7217 281.971C45.4883 282.411 42.4715 284.446 45.441 286.685C47.5283 288.259 55.1648 286.449 57.6573 286.296C66.8364 285.731 76.02 285.056 85.212 284.731C93.914 284.423 102.615 284.315 111.322 284.228C112.651 284.215 114.857 283.789 116.181 284.175C118.083 284.729 117.632 284.88 117.774 287.294C118.032 291.668 117.961 296.058 117.874 300.436C117.79 304.673 117.634 308.909 117.649 313.148C117.659 316.172 116.693 322.181 118.21 324.808C120.394 328.588 122.66 324.482 122.823 321.97C123.136 317.165 122.996 312.302 122.997 307.491C122.998 302.976 123.031 298.46 122.872 293.947C122.756 290.687 123.222 284.996 121.466 282.032C119.677 279.013 115.371 279.664 112.228 279.52C107.326 279.295 102.415 279.311 97.509 279.362Z" fill="#89C5CC"/>
    <path fill-rule="evenodd" clip-rule="evenodd" d="M43.9096 284.81C43.9189 293.295 42.9374 301.722 42.6624 310.197C42.5363 314.093 42.2804 318.371 43.2661 322.196C44.2611 326.058 47.4212 326.895 47.7851 322.583C48.5223 313.853 48.3415 304.8 48.9155 296C49.1181 292.892 50.4367 287.198 49.2057 284.289C48.1217 281.726 43.905 281.234 43.9096 284.81Z" fill="#89C5CC"/>
    <path fill-rule="evenodd" clip-rule="evenodd" d="M122.906 322.208C108.276 324.144 92.9816 323.438 78.2473 323.743C71.1783 323.889 64.1106 323.898 57.0407 323.972C54.5732 323.997 48.3072 323.059 46.1726 324.446C42.7746 326.654 46.4615 328.358 48.711 328.407C62.6632 328.712 76.7706 328.071 90.72 327.613C96.9874 327.407 103.275 327.307 109.526 326.774C113.374 326.446 117.579 326.128 121.316 325.094C122.112 324.874 123.846 324.919 124.024 323.833C124.134 323.162 123.935 322.066 122.906 322.208Z" fill="#89C5CC"/>
    <path fill-rule="evenodd" clip-rule="evenodd" d="M62.0702 334.54C58.0041 334.564 45.7512 332.675 44.0673 336.64C41.8224 341.928 50.5799 340.694 52.9352 340.633C58.2846 340.496 63.6303 340.481 68.9811 340.484C74.2313 340.486 79.481 340.452 84.7303 340.327C86.251 340.291 89.7909 340.922 90.6658 339.091C91.3306 337.699 90.8053 336.601 89.579 335.864C86.6284 334.091 78.9632 335.119 75.5086 334.96C71.036 334.754 66.5484 334.54 62.0702 334.54Z" fill="#89C5CC"/>
    <path fill-rule="evenodd" clip-rule="evenodd" d="M111.537 335.519C109.213 335.657 104.513 334.699 102.431 335.763C100.065 336.972 100.899 338.864 102.941 339.696C104.356 340.272 110.159 339.97 111.537 339.303C112.973 338.607 114.597 335.331 111.537 335.519Z" fill="#89C5CC"/>
    <path fill-rule="evenodd" clip-rule="evenodd" d="M137.013 285.643C134.531 286.324 135.284 300.414 135.22 302.647C135.045 308.767 134.357 316.464 136.39 322.358C137.687 326.115 140.178 325.605 139.753 321.65C139.381 318.178 138.741 314.746 138.464 311.252C137.839 303.345 136.987 294.911 137.578 286.997C137.83 287.457 140.184 291.722 140.738 291.404C140.571 291.503 138.023 285.377 137.013 285.643Z" fill="#89C5CC"/>
    <path fill-rule="evenodd" clip-rule="evenodd" d="M164.93 280.453C159.907 280.528 154.885 280.617 149.864 280.756C145.871 280.867 139.598 280.211 135.937 281.891C131.577 283.89 133.645 288.345 137.74 288.439C141.363 288.523 145.226 287.706 148.881 287.581C158.754 287.243 168.645 287.171 178.522 287.086C187.456 287.009 196.769 287.962 205.624 286.62C206.937 298.283 203.385 309.995 204.593 321.792C204.78 323.623 204.696 326.21 207.028 326.627C209.971 327.154 210.092 324.239 210.203 322.152C210.522 316.193 210.349 310.229 210.786 304.262C211.19 298.732 211.986 293.081 211.313 287.542C210.486 280.727 207.22 281.273 201.447 280.99C189.254 280.392 177.137 280.274 164.93 280.453Z" fill="#89C5CC"/>
    <path fill-rule="evenodd" clip-rule="evenodd" d="M148.098 321.866C145.538 321.931 141.288 321.142 139.648 323.596C137.942 326.15 139.966 328.377 142.447 328.901C145.384 329.521 149.213 328.671 152.261 328.662C155.435 328.652 158.61 328.688 161.784 328.7C175.392 328.753 189.058 328.959 202.657 328.397C204.556 328.318 209.946 328.955 211.26 327.133C212.426 325.518 211.61 324.069 210.074 323.246C207.554 321.895 202.378 322.409 199.575 322.302C196.113 322.17 192.646 322.127 189.183 322.073C175.511 321.862 161.768 321.528 148.098 321.866Z" fill="#89C5CC"/>
    <path fill-rule="evenodd" clip-rule="evenodd" d="M159.609 333.67C154.517 333.757 149.083 333.534 144.041 334.306C139.608 334.985 139.062 339.271 143.834 339.772C148.22 340.233 153.537 339.372 157.944 339.089C159.509 338.988 161.329 339.131 162.079 337.401C162.862 335.593 161.365 333.859 159.609 333.67Z" fill="#89C5CC"/>
    <path fill-rule="evenodd" clip-rule="evenodd" d="M198.108 334.12C195.39 334.188 187.451 333.019 186.104 336.124C183.863 341.292 194.611 339.329 196.673 339.253C199.272 339.157 209.4 340.675 209.402 336.538C209.404 332.481 200.597 334.059 198.108 334.12Z" fill="#89C5CC"/>
    <path fill-rule="evenodd" clip-rule="evenodd" d="M43.4701 359.804C43.4766 369.207 42.8915 378.697 43.7492 388.076C44.1039 391.955 44.0431 399.386 46.2899 402.674C47.8848 405.008 50.0968 404.845 50.968 402.042C51.5503 400.168 50.6189 396.421 50.515 394.416C50.4149 392.493 50.298 390.57 50.209 388.646C49.9804 383.688 49.9985 378.739 50.0667 373.779C50.1251 369.524 51.1493 363.895 50.1835 359.804C49.2831 355.991 43.4701 355.099 43.4701 359.804Z" fill="#69A1AC"/>
    <path fill-rule="evenodd" clip-rule="evenodd" d="M137.967 351.532C121.654 351.941 105.304 351.576 89.0056 352.383C80.9676 352.781 72.9611 353.656 64.9634 354.527C61.0341 354.956 57.1071 355.398 53.1847 355.881C52.0011 356.027 42.1656 356.408 45.8649 360.148C47.4802 361.782 52.6205 360.076 54.6545 359.835C58.5926 359.37 62.5386 358.965 66.4822 358.548C73.9866 357.754 81.5003 357.002 89.0367 356.585C106.786 355.601 124.609 355.896 142.375 355.241C147.181 355.064 151.973 354.937 156.781 355.126C158.044 355.176 167.321 355.647 163.293 352.221C161.388 350.6 154.207 351.436 151.827 351.387C147.207 351.292 142.585 351.416 137.967 351.532Z" fill="#69A1AC"/>
    <path fill-rule="evenodd" clip-rule="evenodd" d="M160.205 367.373C160.125 363.029 160.044 358.685 159.846 354.344C159.638 349.773 165.865 349.081 167.711 352.781C169.041 355.445 168.807 359.977 168.606 363.862C168.526 365.427 168.45 366.888 168.485 368.078C168.564 370.806 168.765 373.628 168.968 376.486C169.48 383.68 170.009 391.111 168.664 397.902C168.01 401.202 165.227 402.936 163.374 401.138C163.371 401.141 163.369 401.145 163.366 401.149C162.669 402.176 160.5 402.174 158.902 402.172C158.462 402.172 158.065 402.171 157.755 402.192C153.378 402.49 149.082 402.992 144.743 403.642C136.099 404.938 127.53 405.734 118.793 405.95C112.864 406.097 106.927 406.146 100.989 406.196C89.6171 406.29 78.2396 406.384 66.9042 407.162C63.0825 407.425 59.3187 407.875 55.5596 408.594C55.2396 408.655 54.8843 408.734 54.506 408.819C51.7109 409.44 47.6645 410.34 47.388 406.434C47.0594 401.798 57.1075 401.19 62.2783 400.878C63.0678 400.83 63.7435 400.789 64.2513 400.742C79.9519 399.282 95.8988 399.508 111.666 399.732C112.43 399.742 113.194 399.753 113.957 399.764C115.187 399.781 116.417 399.801 117.647 399.821C124.398 399.933 131.141 400.044 137.889 399.631C140.961 399.443 144.072 399.346 147.189 399.25C152.162 399.096 157.149 398.941 162.013 398.414C161.279 395.57 161.151 392.214 161.03 389.051C160.983 387.819 160.937 386.617 160.857 385.485C160.43 379.456 160.317 373.415 160.205 367.373Z" fill="#69A1AC"/>
    <path fill-rule="evenodd" clip-rule="evenodd" d="M173.408 357.693C171.204 357.992 169.366 359.879 170.35 362.271C171.589 365.283 175.28 364.106 177.718 363.915C185.468 363.308 193.56 364.521 201.217 363.606C203.308 363.356 206.341 362.217 204.464 359.407C203.053 357.296 197.911 357.666 195.725 357.464C188.25 356.772 180.873 356.957 173.408 357.693Z" fill="#C1DEE2"/>
    <path fill-rule="evenodd" clip-rule="evenodd" d="M186.488 370.834C183.483 371.036 176.486 370.877 175.219 374.297C172.947 380.432 181.846 378.27 184.556 377.921C187.703 377.516 195.124 378.601 196.8 375.549C199.796 370.091 189.124 370.652 186.488 370.834Z" fill="#C1DEE2"/>
    <path fill-rule="evenodd" clip-rule="evenodd" d="M178.759 384.298C177.333 385.724 177.331 388.271 178.759 389.698C180.507 391.445 184.317 391.082 186.614 391.209C189.818 391.388 199.021 393.083 200.612 389.31C202.759 384.219 194.425 384.326 191.684 384.037C188.516 383.704 181.385 381.671 178.759 384.298Z" fill="#C1DEE2"/>
    <path fill-rule="evenodd" clip-rule="evenodd" d="M66.4372 297.159C66.4372 302.632 74.9852 302.632 74.9852 297.159C74.9852 291.715 66.4372 291.632 66.4372 297.159Z" fill="#89C5CC"/>
    <path fill-rule="evenodd" clip-rule="evenodd" d="M82.6512 297.221C82.6512 303.478 92.3875 303.465 92.3875 297.221C92.3875 290.986 82.6512 290.922 82.6512 297.221Z" fill="#89C5CC"/>
    <path fill-rule="evenodd" clip-rule="evenodd" d="M72.8425 305.54C68.1097 306.847 72.4697 310.858 74.6673 311.774C78.1599 313.23 82.9265 314.304 86.42 312.12C87.81 311.251 88.9385 310.097 87.9199 308.411C86.8345 306.615 85.3485 307.414 83.6961 307.579C81.6028 307.79 79.911 307.757 77.8896 307.086C76.3809 306.585 74.4879 305.087 72.8425 305.54Z" fill="#89C5CC"/>
    <path fill-rule="evenodd" clip-rule="evenodd" d="M158.69 297.505C158.69 301.207 164.438 301.207 164.438 297.505C164.438 293.803 158.69 293.803 158.69 297.505Z" fill="#89C5CC"/>
    <path fill-rule="evenodd" clip-rule="evenodd" d="M171.402 298.062C171.402 302.175 177.788 302.176 177.788 298.062C177.788 293.949 171.402 293.95 171.402 298.062Z" fill="#89C5CC"/>
    <path fill-rule="evenodd" clip-rule="evenodd" d="M170.929 306.988C167.575 307.421 157.873 308.404 157.33 312.539C156.493 318.918 167.123 313.755 169.549 313.254C172.64 312.616 175.399 312.783 178.484 312.907C180.178 312.974 182.431 313.249 182.253 310.669C181.962 306.432 173.861 306.613 170.929 306.988Z" fill="#89C5CC"/>
    <path fill-rule="evenodd" clip-rule="evenodd" d="M86.5917 365.815C84.1604 366.463 80.9799 370.666 82.6526 373.239C85.3955 377.458 86.6051 370.98 87.7531 370.356C89.8418 369.222 91.5373 373.368 93.7201 371.193C97.1644 367.761 88.7601 365.234 86.5917 365.815Z" fill="#69A1AC"/>
    <path fill-rule="evenodd" clip-rule="evenodd" d="M114.45 362.696C111.567 362.722 105.48 366.805 105.049 369.818C104.793 371.61 105.98 373.33 107.911 373.354C110.54 373.386 111.375 369.968 113.654 369.253C116.112 368.482 115.747 370.258 117.87 371.178C119.424 371.852 121.367 371.57 121.907 369.66C122.925 366.057 117.413 362.639 114.45 362.696Z" fill="#69A1AC"/>
    <path fill-rule="evenodd" clip-rule="evenodd" d="M92.3796 379.954C87.7679 382.656 95.3562 388.449 97.9868 389.174C101.958 390.267 109.951 388.226 110.893 383.375C111.267 381.444 110.059 379.695 107.929 380.041C106.174 380.326 105.049 382.527 103.424 383.315C101.23 384.378 99.2804 384.306 97.4166 382.705C95.8982 381.4 95.0849 378.376 92.3796 379.954Z" fill="#69A1AC"/>
    <path fill-rule="evenodd" clip-rule="evenodd" d="M95.7222 419.885C91.6018 420.764 87.4134 420.174 83.2731 421.001C79.0513 421.843 76.5282 423.438 72.6058 421.831C72.4213 421.753 72.2372 421.676 72.0532 421.598C69.0173 420.29 65.8354 419.903 62.6576 421.987C60.7771 423.22 55.0684 427.486 55.7564 430.089C57.2475 435.732 63.6711 426.883 65.3091 426.021C68.4326 424.376 70.5742 426.477 73.7899 427.07C77.6418 427.78 80.7412 425.745 84.3696 424.934C88.6133 423.986 93.3873 423.656 97.7047 423.148C99.4104 422.948 105.871 424.297 106.454 422.174C107.456 418.528 97.3416 419.542 95.7222 419.885Z" fill="#C1DEE2"/>
    <path fill-rule="evenodd" clip-rule="evenodd" d="M125.449 431.25C125.719 431.454 125.503 431.29 125.449 431.25V431.25ZM136.989 419.665C140.517 419.307 151.802 416.787 154.12 420.432C155.629 422.806 153.234 431.569 150.949 432.702C149.122 433.607 144.869 432.606 142.865 432.535C139.136 432.404 135.4 432.346 131.675 432.113C130.426 432.035 126.407 432.265 125.428 431.159C124.272 429.854 124.323 422.895 124.051 421.169C127.294 422.219 133.598 420.009 136.989 419.665ZM144.521 416.091C140.004 416.287 135.487 416.627 131.003 417.232C128.504 417.57 125.971 418.468 123.663 418.894C122.919 419.031 121.711 418.65 120.799 419.091C118.132 420.379 120.467 429.089 121.11 431.415C122.098 434.99 124.583 435.569 128.066 435.905C132.653 436.35 137.334 436.21 141.936 436.154C146.371 436.099 152.352 437.082 154.841 432.632C156.45 429.754 158.175 423.053 156.8 419.846C154.991 415.626 148.236 415.935 144.521 416.091Z" fill="#C1DEE2"/>
    <path fill-rule="evenodd" clip-rule="evenodd" d="M195.111 433.644C194.869 433.954 194.869 433.954 195.111 433.644V433.644ZM196.101 432.45C196.026 432.564 195.679 432.93 196.101 432.45V432.45ZM185.327 432.123C187.319 431.748 189.311 431.377 191.304 431.013C189.416 433.656 187.428 432.564 184.203 432.334C184.578 432.263 184.953 432.193 185.327 432.123ZM175.826 431.187C176.331 431.018 176.836 430.85 177.341 430.681C177.325 431.065 177.408 431.425 177.588 431.76C176.724 431.667 175.861 431.566 174.998 431.46C175.274 431.369 175.551 431.278 175.826 431.187ZM171.424 427.936C171.395 427.243 172.438 427.719 173.036 427.672C171.884 428.686 171.346 428.775 171.424 427.936ZM187.169 420.072C187.321 419.878 187.522 419.888 187.772 420.101C187.499 420.193 186.449 420.638 187.169 420.072ZM197.38 418.871C197.407 418.871 197.974 419.636 197.38 418.871V418.871ZM197.094 418.62C197.242 418.734 197.242 418.734 197.094 418.62V418.62ZM195.819 418.472C197.907 418.824 197.748 421.274 195.819 418.472V418.472ZM171.291 418.304C170.866 418.657 171.012 418.315 171.291 418.304V418.304ZM179.275 413.088C175.73 413.294 169.224 413.087 166.264 414.975C162.401 417.44 164.434 425.926 164.779 429.646C165.29 435.144 167.877 436.71 173.056 437.287C179.236 437.976 185.585 438.104 191.797 437.941C197.391 437.794 200.577 435.87 201.602 429.98C201.916 428.178 202.712 425.39 202.687 423.663C202.67 422.466 202.073 421.92 201.847 420.902C200.563 415.105 198.414 414.418 192.473 414.165C188.1 413.979 183.566 412.863 179.275 413.088Z" fill="#89C5CC"/>
  </g>
  <g opacity="0.5">
    <path fill-rule="evenodd" clip-rule="evenodd" d="M367.032 279.913C376.044 280.105 386.268 285.093 384.843 295.659C383.799 303.399 377.098 309.683 369.336 310.224C360.994 310.806 352.174 304.404 351.041 295.91C349.766 286.357 358.22 279.722 367.032 279.913ZM362.613 275.612C358.959 276.157 355.468 278.076 352.251 279.794C351.023 280.451 344.798 284.452 349.681 285.446C337.916 304.419 365.603 322.043 381.17 309.712C388.161 304.174 391.841 293.675 387.322 285.457C382.649 276.957 371.566 274.267 362.613 275.612Z" fill="#89C5CC"/>
    <path fill-rule="evenodd" clip-rule="evenodd" d="M360.459 291.762C360.459 295.306 365.96 295.306 365.96 291.762C365.96 288.218 360.459 288.218 360.459 291.762Z" fill="#89C5CC"/>
    <path fill-rule="evenodd" clip-rule="evenodd" d="M370.657 292.329C370.657 296.171 376.621 296.171 376.621 292.329C376.621 288.488 370.657 288.488 370.657 292.329Z" fill="#89C5CC"/>
    <path fill-rule="evenodd" clip-rule="evenodd" d="M363.775 299.927C362.973 302.842 372.123 304.337 372.428 300.964C372.573 299.352 364.333 297.894 363.775 299.927Z" fill="#89C5CC"/>
    <path fill-rule="evenodd" clip-rule="evenodd" d="M390.599 298.126C401.129 296.863 411.985 297.446 422.565 297.749C425.213 297.826 427.86 297.9 430.509 297.944C432.192 297.972 435.828 298.78 437.298 297.992C443.315 294.766 431.511 293.205 429.84 293.057C419.316 292.191 403.075 291.882 392.52 292.291C389.398 292.412 388.723 298.351 390.599 298.126Z" fill="#89C5CC"/>
    <path fill-rule="evenodd" clip-rule="evenodd" d="M437.98 350.469C438.07 339.437 438.466 328.33 439.314 317.331C439.659 312.847 440.074 308.37 440.417 303.886C440.579 301.775 441.329 298.817 440.088 296.964C438.809 295.055 436.003 294.658 434.312 296.35C432.288 298.97 432.876 303.367 432.624 306.537C432.237 311.41 431.77 316.28 431.537 321.164C431.088 330.616 430.983 340.234 431.743 349.673C432.102 354.127 432.879 358.473 433.914 362.817C434.385 364.795 438.132 373.603 437.345 374.818C436.124 376.702 427.099 375.99 425.141 376.042C420.117 376.177 415.092 376.265 410.067 376.361C405.765 376.443 401.463 376.502 397.16 376.54C395.452 376.555 385.414 376.251 387.641 378.784C362.741 380.519 337.366 377.622 312.618 376.629C311.368 376.578 309.323 376.223 307.435 376.121C307.209 375.21 307.023 374.395 306.977 373.828C306.652 369.851 306.567 365.86 306.214 361.884C305.569 354.609 304.318 347.407 303.574 340.144C302.831 332.889 302.906 325.612 302.473 318.339C302.399 317.093 302.224 306.885 299.648 304.405C300.869 304.867 302.839 304.928 303.973 304.836C313.153 304.096 322.266 302.5 331.368 301.131C333.972 300.74 339.881 301.017 342.041 299.716C343.91 298.589 344.65 294.638 341.398 294.958C332.322 295.93 323.296 297.439 314.292 298.924C311.883 299.321 309.481 299.746 307.079 300.18C305.475 300.47 301.241 300.448 299.997 301.415C298.486 302.589 298.326 303.388 298.838 303.919C298.126 303.723 297.273 304.031 296.248 305.056C294.31 307.578 296.132 313.789 296.363 316.746C296.64 320.293 296.777 323.845 296.938 327.399C297.25 334.275 297.97 341.056 299.076 347.85C300.316 355.46 301.371 363.102 302.614 370.71C302.937 372.691 303.359 374.623 303.898 376.537C300.549 378.249 302.826 380.973 305.481 381.456C305.5 381.46 305.52 381.462 305.539 381.466C306.367 383.485 307.525 385.355 308.429 382.65C308.498 382.442 308.531 382.187 308.539 381.9C315.398 382.676 322.938 382.194 329.691 382.47C344.319 383.068 359.037 383.965 373.68 383.51C379.477 383.33 385.291 382.815 391.039 382.042C394.407 381.589 397.788 381.048 401.102 380.297C401.339 380.243 401.7 380.187 402.117 380.118C402.185 380.116 402.254 380.115 402.318 380.114C407.393 380.037 412.463 379.901 417.533 379.69C421.789 379.513 426.064 379.422 430.306 379.021C432.941 378.772 438.51 378.818 440.127 376.168C441.598 373.759 439.139 367.552 438.79 364.846C438.176 360.08 437.941 355.27 437.98 350.469Z" fill="#C1DEE2"/>
    <path fill-rule="evenodd" clip-rule="evenodd" d="M386.556 318.614C382.501 318.961 378.752 320.865 374.66 320.889C371.225 320.908 367.844 319.882 364.39 320.034C360.339 320.21 358.11 322.83 354.562 323.707C351.737 324.404 349.957 322.241 347.472 321.285C344.335 320.077 342.017 320.701 339.328 322.528C337.352 323.87 332.744 326.883 332.78 329.599C332.886 337.825 342.483 326.462 344.417 326.324C346.988 326.141 349.86 329.071 352.595 329.238C356.211 329.46 358.529 327.128 361.859 326.279C365.226 325.42 368.866 326.472 372.242 326.799C376.093 327.171 379.464 326.313 383.19 325.394C386.801 324.503 389.878 324.55 393.547 325.298C396.023 325.803 402.192 328.739 403.276 324.964C404.751 319.823 389.39 318.373 386.556 318.614Z" fill="#89C5CC"/>
    <path fill-rule="evenodd" clip-rule="evenodd" d="M387.79 334.302C379.482 335.109 371.123 335.816 362.777 336.042C359.162 336.141 345.266 334.591 346.498 339.185C347.555 343.123 366.465 340.643 370.317 340.343C374.569 340.013 378.814 339.551 383.046 339.016C384.545 338.826 388.166 339.022 389.224 337.765C390.233 336.565 389.736 334.108 387.79 334.302Z" fill="#89C5CC"/>
    <path fill-rule="evenodd" clip-rule="evenodd" d="M330.475 355.221C330.286 355.301 330.286 355.301 330.475 355.221V355.221ZM332.228 355.197C334.299 355.132 333.855 354.04 335.921 354.609C336.874 354.871 336.972 354.482 337.711 355.393C339.152 357.17 337.795 361.039 336.374 362.471C331.113 367.773 324.799 355.433 332.228 355.197ZM332.228 349.995C317.825 350.479 323.851 372.728 336.387 368.186C341.564 366.311 344.818 357.861 341.773 353.112C340.292 350.802 338.403 350.391 335.921 350.231C335.345 350.194 334.62 351.031 334.261 350.993C333.406 350.903 333.486 349.948 332.228 349.995Z" fill="#89C5CC"/>
    <path fill-rule="evenodd" clip-rule="evenodd" d="M366.671 355.983C366.414 355.904 371.219 357.301 370.693 356.754C371.815 357.921 370.306 360.68 369.037 361.161C365.964 362.328 364.24 357.549 366.671 355.983ZM368.803 349.95C364.293 350.589 360.813 352.468 360.196 357.482C359.628 362.111 362.755 366.799 367.689 366.889C378.442 367.086 378.769 348.56 368.803 349.95Z" fill="#89C5CC"/>
    <path fill-rule="evenodd" clip-rule="evenodd" d="M417.893 356.186C418.522 364.406 409.999 356.882 417.893 356.186V356.186ZM414.235 347.392C413.489 348.666 414.125 350.018 415.25 350.759C405.196 352.884 407.473 368.013 417.704 365.778C422.907 364.641 423.863 359.171 423.088 354.653C422.719 352.505 417.366 342.038 414.235 347.392Z" fill="#89C5CC"/>
  </g>
  <path opacity="0.5" fill-rule="evenodd" clip-rule="evenodd" d="M437.151 334.624C434.173 335.022 427.134 337.49 427.195 340.141C427.291 344.278 433.273 339.759 434.604 339.151C441.753 335.886 451.012 340.117 458.456 341.017C461.868 341.43 468.544 342.193 471.559 340.476C476.92 337.423 464.522 338.188 462.943 338.065C454.36 337.4 445.822 333.462 437.151 334.624Z" fill="#C1DEE2"/>
  <g opacity="0.5">
    <path fill-rule="evenodd" clip-rule="evenodd" d="M579.586 316.268C579.583 321.946 579.296 327.742 580.343 333.352C580.66 335.051 580.909 338.304 582.701 339.185C584.501 340.07 586.246 339.076 586.693 337.231C587.215 335.085 586.071 331.872 585.955 329.619C585.796 326.54 585.785 323.458 585.784 320.376C585.783 318.15 586.515 314.569 583.887 313.424C581.934 312.572 579.586 314.156 579.586 316.268Z" fill="#C1DEE2"/>
    <path fill-rule="evenodd" clip-rule="evenodd" d="M669.353 307.287C650.541 309.176 631.457 309.568 612.576 310.553C603.849 311.008 593.301 310.427 585.079 313.805C583.552 314.433 578.084 317.925 582.523 319.347C583.907 319.79 585.313 318.299 586.449 317.8C588.341 316.969 590.532 316.712 592.55 316.387C609.706 313.632 627.651 314.112 644.984 312.824C649.425 312.494 653.868 312.155 658.3 311.719C661.467 311.407 668.122 309.125 671.044 310.292C676.037 312.287 675.921 325.247 676.019 329.704C676.071 332.009 673.833 340.283 678.281 339.444C681.84 338.773 680.551 330.177 680.274 327.826C679.546 321.662 678.304 306.38 669.353 307.287Z" fill="#C1DEE2"/>
    <path fill-rule="evenodd" clip-rule="evenodd" d="M676.291 339.146C659.95 340.621 643.233 339.173 626.824 339.754C618.224 340.058 609.632 340.543 601.03 340.827C597.31 340.95 593.586 340.955 589.864 340.982C588.084 340.994 579.983 342.073 584.994 345.602C587.213 347.165 594.285 345.906 596.831 345.876C600.656 345.831 604.478 345.672 608.3 345.522C617.152 345.176 625.999 344.696 634.856 344.457C643.328 344.227 651.805 344.178 660.277 343.949C664.492 343.834 668.765 343.705 672.943 343.09C673.886 342.951 676.948 342.84 677.603 341.789C678.222 340.795 677.787 339.001 676.291 339.146Z" fill="#89C5CC"/>
    <path fill-rule="evenodd" clip-rule="evenodd" d="M595.979 326.877C595.891 327.085 595.891 327.085 595.979 326.877V326.877ZM603.055 324.726C603.313 324.835 603.313 324.835 603.055 324.726V324.726ZM602.724 324.666C606.537 328.553 600.673 333.193 597.1 329.4C593.309 325.373 600.269 324.679 602.724 324.666ZM598.679 318.786C585.544 321.123 590.194 338.629 602.463 336.099C607.849 334.989 610.929 329.563 609.075 324.351C608.351 322.314 606.772 320.079 604.574 319.438C603.477 319.118 602.508 319.621 601.464 319.503C600.468 319.391 599.915 318.563 598.679 318.786Z" fill="#C1DEE2"/>
    <path fill-rule="evenodd" clip-rule="evenodd" d="M648.95 323.713C641.029 323.738 633.107 324.074 625.187 324.225C622.758 324.27 616.514 323.183 616.505 327.013C616.494 331.105 623.449 329.594 625.763 329.539C633.619 329.351 641.495 329.007 649.319 328.259C651.295 328.07 658.138 328.396 658.131 325.708C658.123 322.86 650.546 323.713 648.95 323.713Z" fill="#C1DEE2"/>
    <path fill-rule="evenodd" clip-rule="evenodd" d="M667.869 350.421C648.279 350.947 628.718 351.13 609.143 352.133C601.822 352.508 594.51 352.787 587.178 352.787C585.766 352.787 582.922 352.24 581.593 353.129C577.986 355.541 582.093 357.612 584.444 357.742C600.525 358.634 616.838 356.413 632.909 355.912C642.317 355.619 651.728 355.532 661.131 355.053C663.696 354.923 666.262 354.771 668.823 354.572C670.296 354.458 674.191 354.771 675.381 353.909C680.579 350.147 669.621 350.374 667.869 350.421Z" fill="#89C5CC"/>
    <path fill-rule="evenodd" clip-rule="evenodd" d="M577.986 360C577.801 365.079 577.782 370.07 578.447 375.121C578.708 377.108 578.828 379.364 581.158 379.869C583.274 380.327 584.347 378.727 584.785 376.953C585.855 372.62 584.914 366.384 584.901 361.882C584.896 359.657 584.893 357.166 582.143 356.663C580.045 356.279 578.066 357.795 577.986 360Z" fill="#89C5CC"/>
    <path fill-rule="evenodd" clip-rule="evenodd" d="M688.634 372.245C656.922 373.916 625.252 375.375 593.518 376.716C591.043 376.821 571.817 376.612 578.538 383.316C580.614 385.387 585.963 383.984 588.648 383.853C592.682 383.655 596.719 383.503 600.754 383.298C616.75 382.483 632.788 382.264 648.773 381.35C657.57 380.847 666.346 380.06 675.097 379.036C679.259 378.549 684.426 378.599 688.324 376.968C690.33 376.129 692.494 372.04 688.634 372.245Z" fill="#89C5CC"/>
    <path fill-rule="evenodd" clip-rule="evenodd" d="M670.4 346.48C667.988 348.881 669.228 353.62 669.41 356.589C669.66 360.674 669.964 364.762 670.474 368.825C670.806 371.464 670.63 375.571 672.038 377.851C673.687 380.521 677.317 380.225 678.808 377.646C680.127 375.365 679.459 370.566 679.425 368.038C679.378 364.542 679.16 361.041 678.953 357.552C678.779 354.637 679.44 349.964 677.836 347.469C676.206 344.933 672.66 344.232 670.4 346.48Z" fill="#89C5CC"/>
    <path fill-rule="evenodd" clip-rule="evenodd" d="M597.917 365.119C597.634 365.337 597.634 365.337 597.917 365.119V365.119ZM603.549 364.413C608.805 365.47 600.307 371.606 597.621 367.395C597.202 366.737 596.983 365.928 597.657 365.356C598.271 364.834 598.657 365.758 599.238 365.51C600.238 365.082 602.482 364.373 603.549 364.413ZM602.824 359.375C599.236 359.659 594.303 359.881 592.527 363.478C590.141 368.309 594.221 373.04 598.942 373.775C603.485 374.483 610.267 371.967 610.631 366.669C610.924 362.397 606.861 359.048 602.824 359.375Z" fill="#89C5CC"/>
    <path fill-rule="evenodd" clip-rule="evenodd" d="M632.781 361.93C629.066 361.99 621.765 360.892 618.529 362.702C615.327 364.494 616.755 367.684 619.676 368.447C621.607 368.951 624.763 368.138 626.773 368.056C629.418 367.948 632.064 367.925 634.711 367.888C639.161 367.829 643.609 367.879 648.06 367.879C652.605 367.879 657.229 368.003 661.766 367.669C667.508 367.247 667.353 362.947 661.738 362.41C652.2 361.497 642.35 361.78 632.781 361.93Z" fill="#89C5CC"/>
    <path fill-rule="evenodd" clip-rule="evenodd" d="M623.293 410.08C623.293 412.122 625.105 410.08 625.092 410.08C625.105 410.08 623.293 408.037 623.293 410.08Z" fill="#89C5CC"/>
    <path fill-rule="evenodd" clip-rule="evenodd" d="M582.297 393.637C582.414 399.574 582.491 405.517 582.744 411.45C582.825 413.326 582.287 416.989 584.561 417.945C587.092 419.01 587.879 416.356 588.171 414.558C589.094 408.862 588.189 402.358 588.1 396.594C588.07 394.659 588.489 391.965 586.291 391C584.498 390.212 582.261 391.674 582.297 393.637Z" fill="#89C5CC"/>
    <path fill-rule="evenodd" clip-rule="evenodd" d="M679.935 393.73C680.085 394.084 680.085 394.084 679.935 393.73V393.73ZM680.147 393.67C680.269 393.72 680.76 393.927 680.147 393.67V393.67ZM632.183 388.871C623.069 389.014 613.948 389.122 604.839 389.512C600.952 389.679 597.019 389.813 593.145 390.18C590.401 390.44 583.585 390.547 581.805 392.79C578.132 397.419 585.92 396.156 587.598 395.78C590.651 395.096 593.767 394.877 596.886 394.712C603.653 394.355 610.423 394.164 617.199 394.028C635.574 393.658 653.962 393.714 672.34 393.632C674.119 393.624 677.335 392.908 678.978 393.628C680.625 394.349 680.532 396.123 680.703 398.182C680.93 400.922 679.123 406.143 680.5 408.448C682.636 412.023 685.742 408.987 686.217 406.381C686.873 402.78 685.833 398.456 684.815 395.013C683.379 390.157 681.385 389.964 676.688 389.584C671.199 389.141 665.731 388.872 660.224 388.821C650.879 388.735 641.528 388.726 632.183 388.871Z" fill="#89C5CC"/>
    <path fill-rule="evenodd" clip-rule="evenodd" d="M668.234 413.414C648.464 415.71 628.132 414.357 608.257 414.438C603.424 414.458 598.587 414.497 593.758 414.731C591.208 414.854 585.163 414.151 583.415 416.119C579.732 420.266 586.367 420.869 588.789 420.698C593.686 420.35 598.594 420.191 603.504 420.153C620.796 420.019 638.187 420.826 655.465 419.973C662.704 419.615 669.781 418.377 676.886 416.993C678.46 416.687 689.235 414.638 683.091 412.183C679.46 410.732 672.048 412.969 668.234 413.414Z" fill="#89C5CC"/>
    <path fill-rule="evenodd" clip-rule="evenodd" d="M610.512 405.822C610.374 405.999 610.374 405.999 610.512 405.822V405.822ZM610.38 405.791C610.333 405.918 610.187 406.232 610.38 405.791V405.791ZM609.133 404.183C609.161 404.22 609.279 404.371 609.133 404.183V404.183ZM609.085 404.171C609.561 404.739 609.881 405.373 610.046 406.072C605.95 407.182 604.372 403.868 609.085 404.171ZM608.825 404.016C608.827 404.017 609.403 404.259 608.825 404.016V404.016ZM602.097 399.079C599.446 402.38 597.257 406.228 600.563 409.998C603.518 413.37 609.463 413.805 613.214 411.554C617.077 409.235 616.744 404.352 614.048 401.165C612.313 399.113 610.907 399.17 608.389 398.835C606.675 398.607 603.551 397.274 602.097 399.079Z" fill="#89C5CC"/>
    <path fill-rule="evenodd" clip-rule="evenodd" d="M629.5 405.189C629.5 409.585 648.481 407.693 651.858 407.688C654.687 407.684 671.79 409.244 670.563 404.72C669.554 401.003 652.707 402.851 649.119 402.845C646.018 402.841 629.5 400.712 629.5 405.189Z" fill="#89C5CC"/>
  </g>
  <g opacity="0.5">
    <path fill-rule="evenodd" clip-rule="evenodd" d="M381.7 446.376C391.206 447.756 401.094 452.227 401.011 463.292C400.941 472.595 393.138 482.496 383.119 481.94C374.102 481.441 365.612 471.58 364.483 463.13C363.898 458.752 364.993 454.039 367.568 450.437C370.942 445.719 376.296 445.726 381.7 446.376ZM377.209 440.362C370.334 440.399 365.304 442.886 361.049 448.136C359.523 450.018 357.748 452.044 356.586 454.177C355.501 456.169 355.691 461.234 359.415 458.859C358.498 468.665 364.229 478.182 372.467 483.206C381.422 488.669 391.544 487.604 398.997 479.948C405.819 472.94 408.22 461.103 403.229 452.436C398.241 443.774 386.683 440.269 377.209 440.362Z" fill="#89C5CC"/>
    <path fill-rule="evenodd" clip-rule="evenodd" d="M397.826 437.734C393.424 440.96 389.405 445.208 386.067 449.517C382.804 453.728 380.647 458.987 376.727 462.66C374.748 460.504 372.429 454.681 368.48 456.991C365.203 458.908 367.313 462.205 368.909 464.369C373.03 469.958 377.606 472.208 382.891 466.685C387.691 461.67 390.417 454.98 394.905 449.677C396.873 447.349 399.915 445.04 401.482 442.47C402.903 440.141 401.146 435.294 397.826 437.734Z" fill="#89C5CC"/>
  </g>
  <g opacity="0.5">
    <path fill-rule="evenodd" clip-rule="evenodd" d="M564.175 87.8777C564.182 88.3175 564.188 88.7313 564.198 89.1116C564.403 97.416 564.284 106.146 563.609 114.431C563.376 117.292 561.295 120.917 558.921 116.974C557.878 115.24 558.024 111.68 558.131 109.061C558.16 108.358 558.186 107.724 558.186 107.21C558.184 104.288 558.337 101.336 558.491 98.3753C558.792 92.588 559.095 86.7703 558.238 81.0864C558.221 80.9713 558.204 80.8606 558.189 80.7542C557.817 78.2547 557.791 78.082 555.042 78.1388C553.896 78.1626 552.751 78.1936 551.605 78.2245C550.478 78.255 549.351 78.2855 548.224 78.3091C547.104 78.3326 545.985 78.3542 544.866 78.3757C541.356 78.4432 537.846 78.5107 534.338 78.6392C533.752 78.6608 532.659 78.7978 531.281 78.9707C528.524 79.3164 524.624 79.8056 521.342 79.8028C521.343 79.8169 521.344 79.831 521.345 79.8452C521.347 79.8705 521.349 79.8959 521.349 79.9218C521.386 81.7337 520.919 83.7564 520.451 85.7884C520.058 87.4902 519.664 89.1985 519.563 90.7951C519.322 94.5942 519.319 98.4335 519.317 102.273C519.313 106.948 519.31 111.623 518.877 116.225C518.856 116.45 518.843 116.687 518.83 116.927C518.829 116.959 518.827 116.991 518.825 117.023C518.974 117 519.118 116.984 519.257 116.975C521.623 116.825 524.008 116.812 526.39 116.798C527.704 116.791 529.016 116.784 530.324 116.753C532.671 116.699 535.048 116.702 537.434 116.704C542.701 116.71 548.015 116.716 553.167 116.109C554.689 115.911 555.221 117.863 554.538 118.875C553.927 119.781 552.245 119.928 551.012 120.035C550.699 120.062 550.415 120.087 550.185 120.121C546.862 120.613 543.495 120.785 540.142 120.934C536.621 121.09 533.097 121.206 529.573 121.304C528.734 121.328 527.615 121.441 526.374 121.566C523.098 121.897 518.972 122.314 516.925 121.388C514.724 120.392 514.776 119.287 515.674 118.431C515.28 117.564 515.218 116.299 515.169 115.309C515.151 114.931 515.134 114.593 515.102 114.333C514.614 110.392 514.319 106.501 514.312 102.526C514.299 94.7397 514.314 86.6528 516.468 79.1159C515.606 78.7382 515.085 78.1814 515.087 77.3788C515.097 73.3351 527.683 73.5409 533.665 73.6387C534.735 73.6562 535.593 73.6702 536.131 73.6559C540.489 73.542 544.848 73.5272 549.207 73.5508C550.128 73.5557 551.153 73.4954 552.215 73.433C554.474 73.3002 556.901 73.1576 558.852 73.611C563.978 74.801 564.101 82.9646 564.175 87.8777Z" fill="#89C5CC"/>
    <path fill-rule="evenodd" clip-rule="evenodd" d="M596.235 74.4973C600.994 74.2455 605.756 74.1876 610.521 74.17C615.566 74.1446 620.618 74.2353 625.661 74.3904L625.778 74.3939C628.012 74.461 640.432 74.8341 634.726 77.929C634.394 78.1096 634.019 78.2605 633.61 78.3857C633.852 79.8188 633.881 81.2985 633.842 82.0113C633.695 84.7145 633.598 87.4207 633.501 90.1268C633.435 91.9607 633.369 93.7946 633.287 95.6276C633.063 100.692 632.849 105.757 632.675 110.824C632.653 111.446 632.686 112.259 632.723 113.166C632.844 116.163 633.007 120.18 631.379 121.665C629.95 122.968 628.974 122.707 628.316 121.822C624.228 123.009 615.832 122.623 611.611 122.429C610.593 122.382 609.819 122.346 609.405 122.346C608.665 122.347 607.289 122.439 605.553 122.556C598.324 123.041 584.829 123.948 584.802 120.384C584.799 120.041 584.91 119.734 585.12 119.458C584.547 118.874 584.032 118.016 583.701 116.945C582.513 113.101 582.401 108.954 582.313 104.968C582.188 99.3397 582.187 93.705 582.186 88.0715C582.185 85.1783 582.184 82.2854 582.167 79.3938C581.394 78.356 581.853 77.169 582.817 76.3409C584.87 74.5789 589.966 74.5577 593.652 74.5423C594.644 74.5381 595.534 74.5344 596.235 74.4973ZM588.491 117.895C593.078 116.916 600.807 117.231 604.947 117.4C606.032 117.444 606.87 117.478 607.342 117.477C611.571 117.46 615.801 117.519 620.027 117.688C620.465 117.705 621.113 117.689 621.877 117.669C623.412 117.631 625.412 117.58 627.111 117.769C627.088 117.538 627.073 117.328 627.064 117.146C626.873 113.384 627.011 109.59 627.147 105.817V105.817C627.176 105.015 627.205 104.214 627.231 103.415C627.322 100.594 627.442 97.7745 627.563 94.9549L627.563 94.9547L627.563 94.9533C627.639 93.1783 627.714 91.4033 627.783 89.6278C627.813 88.8487 627.768 87.7905 627.718 86.5999V86.5998C627.616 84.1775 627.49 81.2075 627.924 78.9264C626.359 78.8967 624.756 78.7858 623.285 78.6841C621.869 78.5861 620.575 78.4966 619.558 78.4965C618.268 78.4964 616.979 78.4924 615.689 78.4884H615.689H615.689H615.689C612.115 78.4775 608.543 78.4665 604.969 78.5372C604.631 78.5439 604.292 78.5505 603.952 78.557L603.952 78.557L603.952 78.557C599.032 78.652 594.07 78.7477 589.191 79.3959C588.905 79.4339 588.562 79.5072 588.181 79.5962C588.716 81.8318 588.454 84.9826 588.225 87.7421C588.113 89.0824 588.009 90.3304 588.008 91.3364C588.001 97.5922 588.166 103.823 588.331 110.049L588.331 110.049L588.331 110.049C588.394 112.404 588.456 114.757 588.509 117.111C588.516 117.392 588.509 117.653 588.491 117.895Z" fill="#89C5CC"/>
    <path fill-rule="evenodd" clip-rule="evenodd" d="M536.284 121.123C533.157 122.95 534.843 130.259 535.927 132.786C537.708 136.943 541.322 140.195 545.222 142.352C553.104 146.712 564.466 145.554 570.427 153.114C570.489 153.192 572.549 155.232 573.018 152.59C573.403 150.422 569.557 147.111 568.066 146.025C563.827 142.934 558.391 141.938 553.488 140.394C548.259 138.748 542.521 135.713 540.328 130.322C539.552 128.413 541.032 118.336 536.284 121.123Z" fill="#C1DEE2"/>
    <path fill-rule="evenodd" clip-rule="evenodd" d="M607.78 124.637C604.914 125.427 606.809 129.371 606.804 131.345C606.799 133.809 606.011 136.387 604.493 138.353C600.643 143.338 593.104 144.085 587.452 145.515C583.348 146.553 573.529 148.78 573.145 154.331C572.716 160.529 581.385 152.986 582.117 152.677C590.219 149.705 600.701 149.131 606.955 142.589C609.537 139.888 611.062 136.284 611.305 132.564C611.441 130.469 611.465 123.63 607.78 124.637Z" fill="#C1DEE2"/>
    <path fill-rule="evenodd" clip-rule="evenodd" d="M548.561 179.616C548.494 168.148 559.469 161.211 569.394 158.601C581.322 155.458 592.434 163.817 593.84 175.84C595.324 188.529 585.761 198.744 573.149 199.304C562.055 199.796 548.632 191.853 548.561 179.616ZM575.207 164.115C575.852 164.992 576.435 166.392 575.135 167.154C573.885 167.883 573.26 167.007 572.632 166.125C572.234 165.568 571.835 165.009 571.276 164.851C569.826 164.443 567.496 165.968 566.288 166.857C565.798 167.218 565.1 167.995 564.284 168.904C561.688 171.795 557.898 176.017 555.802 172.384C547.446 186.813 568.278 197.612 580.124 192.151C593.134 186.154 590.602 164.229 575.207 164.115Z" fill="#89C5CC"/>
    <path fill-rule="evenodd" clip-rule="evenodd" d="M564.289 175.777C564.289 178.409 568.446 178.409 568.446 175.777C568.446 173.174 564.289 173.063 564.289 175.777Z" fill="#89C5CC"/>
    <path fill-rule="evenodd" clip-rule="evenodd" d="M571.603 175.283C571.603 178.507 576.697 178.507 576.697 175.283C576.697 172.095 571.603 171.959 571.603 175.283Z" fill="#89C5CC"/>
    <path fill-rule="evenodd" clip-rule="evenodd" d="M566.369 182.796C562.203 185.247 574.117 190.115 574.587 185.14C574.79 182.993 572.711 183.572 571.325 183.414C569.999 183.263 567.627 182.064 566.369 182.796Z" fill="#89C5CC"/>
    <path fill-rule="evenodd" clip-rule="evenodd" d="M564.562 200.181C564.743 206.44 564.656 212.695 565.843 218.867C566.069 220.039 566.225 224.291 567.152 225.162C569.431 227.304 569.468 223.198 569.557 221.625C569.873 215.99 569.281 210.179 569.151 204.532C569.122 203.316 569.445 200.799 568.871 199.622C567.961 197.754 564.473 197.2 564.562 200.181Z" fill="#C1DEE2"/>
    <path fill-rule="evenodd" clip-rule="evenodd" d="M560.106 195.106C550.973 205.357 538.396 204.602 525.726 205.5C519.032 205.974 512.263 206.948 506.876 211.278C504.37 213.293 502.21 215.816 500.758 218.691C500.124 219.948 497.114 227.201 501.634 225.481C503.237 224.87 504.816 220.074 505.852 218.655C507.827 215.953 510.354 213.722 513.385 212.272C519.232 209.475 526.214 209.523 532.554 209.168C539.181 208.797 546.294 208.45 552.386 205.568C555.252 204.213 557.94 202.522 560.247 200.343C561.071 199.564 562.838 198.241 562.969 197.05C563.12 195.689 561.812 193.197 560.106 195.106Z" fill="#C1DEE2"/>
    <path fill-rule="evenodd" clip-rule="evenodd" d="M514 226.569C505.421 226.856 496.852 227.203 488.285 227.746C486.53 227.857 480.676 227.502 482.167 231.1C483.362 233.983 490.501 232.076 492.862 231.936C501.789 231.406 510.753 231.222 519.662 230.419C521.663 230.239 530.709 230.31 526.973 226.764C525.196 225.076 516.455 226.486 514 226.569Z" fill="#89C5CC"/>
    <path fill-rule="evenodd" clip-rule="evenodd" d="M476.72 230.707C474.015 234.259 475.258 242.891 475.462 247.161C475.66 251.298 474.856 258.863 480.257 259.505C478.542 259.28 481.559 259.609 482.05 259.635C483.147 259.694 484.248 259.713 485.346 259.725C487.883 259.753 490.421 259.719 492.957 259.668C498.702 259.553 504.462 259.386 510.2 259.069C512.612 258.935 525.696 259.047 526.214 256.541C526.876 253.339 514.331 255.151 512.085 255.253C506.616 255.504 501.138 255.557 495.664 255.628C492.951 255.664 490.235 255.691 487.522 255.638C486.401 255.616 481.965 256.076 481.284 255.328C480.703 254.692 481.156 248.842 481.144 247.947C481.104 245.03 481.107 242.106 481.211 239.191C481.281 237.228 482.342 233.493 481.478 231.649C480.636 229.856 478.185 229.244 476.72 230.707Z" fill="#89C5CC"/>
    <path fill-rule="evenodd" clip-rule="evenodd" d="M520.895 230.873C521.052 237.371 521.1 243.999 522.635 250.354C523.146 252.468 523.861 256.829 525.986 257.924C528.215 259.073 530.141 257.433 530.286 255.223C530.47 252.446 528.983 248.799 528.678 245.949C528.321 242.624 528.114 239.296 527.992 235.954C527.9 233.441 528.664 229.673 526.268 228.053C524.116 226.597 520.825 228.063 520.895 230.873Z" fill="#89C5CC"/>
    <path fill-rule="evenodd" clip-rule="evenodd" d="M537.968 229.287C535.3 231.945 536.492 240.36 536.826 243.775C537.07 246.276 539.808 258.581 543.91 252.164C545.725 249.326 543.419 241.821 543.436 238.511C543.446 236.403 544.192 233.738 543.832 231.713C543.356 229.037 540.388 226.87 537.968 229.287Z" fill="#89C5CC"/>
    <path fill-rule="evenodd" clip-rule="evenodd" d="M556.443 227.093C564.457 226.266 572.481 225.646 580.539 225.569C580.926 225.566 581.333 225.561 581.756 225.556C587.279 225.486 595.579 225.38 599.296 229.528C601.321 231.787 602.238 235.28 603.038 238.325C603.187 238.892 603.332 239.445 603.479 239.97C603.605 240.42 603.769 240.932 603.946 241.486C604.781 244.1 605.91 247.637 604.765 249.826C604.137 251.027 603.126 252.051 601.591 251.626C601.233 251.526 600.952 251.399 600.731 251.249C601.319 251.885 601.58 252.792 601.198 253.678C600.46 255.392 598.128 255.429 596.291 255.457C595.846 255.464 595.429 255.471 595.072 255.501C588.953 256.011 582.806 256.351 576.666 256.405C573.742 256.43 570.818 256.406 567.894 256.383C564.885 256.358 561.875 256.333 558.866 256.363C556.681 256.384 554.457 256.592 552.231 256.8C549.422 257.062 546.611 257.324 543.878 257.212C541.834 257.128 539.651 256.459 540.169 253.817C540.592 251.66 542.622 251.472 544.441 251.303C544.599 251.289 544.756 251.274 544.91 251.258C550.702 250.669 556.498 250.46 562.32 250.481C574.551 250.523 586.773 250.46 599.003 250.396C599.506 250.437 599.979 250.63 600.369 250.922C599.929 250.388 599.937 249.676 599.947 248.919C599.951 248.576 599.955 248.223 599.918 247.874C599.843 247.171 599.774 246.471 599.706 245.772C599.48 243.463 599.256 241.171 598.815 238.848C598.749 238.498 598.685 238.112 598.617 237.704C598.216 235.293 597.686 232.098 595.769 230.796C593.841 229.487 590.061 229.55 587.115 229.599C586.32 229.612 585.585 229.624 584.964 229.608C577.103 229.405 569.197 229.964 561.371 230.675C560.77 230.73 560.168 230.782 559.565 230.835C556.588 231.094 553.595 231.355 550.661 231.887C550.124 231.985 549.304 232.271 548.363 232.6C545.86 233.473 542.503 234.644 541.362 233.354C537.584 229.081 554.188 227.326 556.443 227.093Z" fill="#89C5CC"/>
    <path fill-rule="evenodd" clip-rule="evenodd" d="M641.707 217.363C642.056 217.811 642.056 217.811 641.707 217.363V217.363ZM587.473 190.887C582.605 193.748 591.614 202.143 593.909 203.441C599.073 206.363 606.17 206.804 611.936 207.625C619.234 208.666 627.176 209.049 634.19 211.44C637.179 212.459 639.077 214.049 641.034 216.493C642.025 217.732 644.413 223.069 646.587 221.805C650.964 219.261 639.169 208.583 636.57 207.435C630.662 204.825 623.678 204.094 617.361 203.081C611.487 202.138 605.486 201.437 599.757 199.775C596.607 198.862 594.368 197.388 592.552 194.567C591.42 192.809 590.492 189.121 587.473 190.887Z" fill="#C1DEE2"/>
    <path fill-rule="evenodd" clip-rule="evenodd" d="M662.091 223.681C656.479 223.806 650.878 224.238 645.278 224.669C642.136 224.911 638.995 225.153 635.853 225.341C634.87 225.4 633.886 225.453 632.902 225.506L632.902 225.506L632.902 225.506C630.133 225.655 627.361 225.804 624.606 226.083C624.188 226.125 623.703 226.165 623.174 226.208C620.834 226.4 617.644 226.662 615.605 227.516C613.736 226.102 610.851 227.304 610.806 229.824C610.729 234.414 610.771 238.923 611.331 243.485C611.461 244.544 612.13 249.905 613.586 252.696C613.068 255.332 615.315 256.07 617.406 256.272C625.506 257.054 633.999 256.447 642.378 255.849C646.639 255.544 650.871 255.242 655.006 255.125C656.381 255.086 657.774 255.071 659.175 255.055C663.747 255.004 668.407 254.952 672.833 254.087C673.011 254.052 673.202 254.018 673.402 253.982C675.152 253.669 677.565 253.236 677.749 251.31C677.859 250.154 677.207 249.096 676.116 248.947C676.191 247.984 676.07 246.933 675.981 246.161L675.981 246.161C675.96 245.981 675.941 245.816 675.927 245.671C675.661 242.993 674.994 240.332 674.335 237.705L674.335 237.705L674.335 237.705C674.187 237.114 674.04 236.525 673.897 235.939C673.739 235.289 673.593 234.516 673.435 233.682C672.879 230.74 672.179 227.042 670.32 225.325C668.369 223.525 665.194 223.604 662.65 223.668C662.46 223.673 662.273 223.678 662.091 223.681ZM671.966 249.235C671.301 247.493 671.106 245.138 670.921 242.899V242.899C670.805 241.494 670.692 240.134 670.47 239.002C670.302 238.151 670.165 237.255 670.026 236.344L670.026 236.344C669.688 234.131 669.337 231.832 668.506 229.893C667.394 227.296 666.404 227.395 664.062 227.63C663.627 227.674 663.144 227.722 662.606 227.759C660.219 227.921 657.834 228.127 655.45 228.334L655.45 228.334C654.306 228.433 653.162 228.532 652.018 228.626C647.122 229.028 642.223 229.338 637.324 229.647L637.324 229.647C634.462 229.828 631.599 230.009 628.737 230.208C626.491 230.364 624.298 230.791 622.115 231.216C620.386 231.553 618.662 231.889 616.922 232.088C616.897 232.683 616.847 233.281 616.799 233.849C616.734 234.624 616.674 235.346 616.687 235.937C616.744 238.559 616.975 241.164 617.207 243.774C617.243 244.175 617.278 244.576 617.313 244.978C617.355 245.459 617.459 246.077 617.574 246.763C617.751 247.824 617.956 249.046 618.001 250.172C618.213 250.17 618.424 250.171 618.631 250.171C618.899 250.172 619.162 250.173 619.415 250.169C625.583 250.061 631.747 249.874 637.912 249.637C638.699 249.607 639.486 249.576 640.273 249.546C645.773 249.332 651.273 249.118 656.778 249.054C658.965 249.029 661.18 249.098 663.403 249.167C666.262 249.255 669.132 249.344 671.966 249.235Z" fill="#89C5CC"/>
  </g>
  <path fill-rule="evenodd" clip-rule="evenodd" d="M246.059 306.745C250.718 309.555 255.295 310.913 257.444 310.359C262.832 308.969 263.328 289.243 259.159 281.467C254.99 273.69 233.556 270.301 232.476 285.709C232.101 291.056 234.345 295.828 237.66 299.723L231.716 327.449H248.983L246.059 306.745Z" fill="#B28B67"/>
  <path fill-rule="evenodd" clip-rule="evenodd" d="M252.338 272.997C249.979 272.277 246.554 272.033 245.113 272.198C245.932 270.233 246.258 268.044 245.993 265.912C245.735 263.84 244.81 262.077 243.955 260.229C243.56 259.377 243.113 258.529 242.447 257.878C241.768 257.214 240.909 256.776 240.009 256.567C239.087 256.353 238.123 256.371 237.199 256.565C236.791 256.651 236.424 256.838 236.024 256.942C235.614 257.048 235.415 256.791 235.117 256.533C234.399 255.911 233.347 255.604 232.44 255.494C231.421 255.37 230.364 255.524 229.393 255.859C228.447 256.185 227.539 256.715 226.856 257.487C226.551 257.83 226.275 258.221 226.095 258.653C226.022 258.83 226.01 258.935 225.833 259C225.67 259.06 225.478 259.061 225.31 259.119C223.68 259.671 222.286 260.932 221.527 262.55C221.084 263.494 220.874 265.156 220.932 267.02C220.989 268.883 222.671 273.744 224.243 275.518C225.647 277.101 227.71 278.145 229.701 278.602C228.379 280.114 227.499 282.003 226.849 283.924C226.142 286.011 225.705 288.179 225.543 290.388C225.39 292.487 225.376 294.707 225.868 296.761C226.328 298.682 227.311 300.258 228.954 301.258C229.706 301.716 230.515 302.06 231.329 302.374C232.131 302.684 232.936 302.985 233.777 303.159C235.367 303.488 237.2 303.432 238.425 302.165C238.866 301.708 239.352 301.134 239.674 300.576C239.79 300.376 239.86 300.244 239.719 300.048C239.55 299.813 239.278 299.633 239.061 299.45C237.826 298.402 237.062 297.003 236.869 295.341C236.673 293.655 237.126 291.478 238.765 290.742C240.787 289.834 243.014 290.877 244.812 291.849C245.576 289.15 247.145 286.721 249.604 285.483C252.325 284.114 255.447 283.954 258.243 282.779C258.972 282.473 259.714 282.125 260.251 281.501C260.475 281.241 260.738 280.902 260.827 280.558C260.945 280.105 260.653 279.725 260.427 279.372C259.232 277.5 254.698 273.717 252.338 272.997Z" fill="#191847"/>
  <path fill-rule="evenodd" clip-rule="evenodd" d="M230.277 513.202C260.873 513.202 285.676 489.51 285.676 460.284C285.676 431.058 260.873 407.366 230.277 407.366C199.681 407.366 174.878 431.058 174.878 460.284C174.878 489.51 199.681 513.202 230.277 513.202Z" fill="#C5CFD6"/>
  <path fill-rule="evenodd" clip-rule="evenodd" d="M316.405 457.461C319.081 466.841 325.748 484.62 334.966 505.037L343.726 502.479C336.062 455.498 329.684 424.394 326.031 414.927C323.617 408.672 305.356 409.405 307.457 421.99C308.338 427.268 311.823 441.401 316.405 457.461ZM280.4 424.185C266.115 427.147 236.496 437.617 228.038 440.962C222.723 443.065 226.149 450.195 230.684 449.572C231.452 449.466 234.169 449.162 238.223 448.708C251.243 447.25 278.058 444.248 298.395 441.319C309.104 439.777 303.343 419.705 292.225 421.829C288.484 422.543 284.505 423.334 280.4 424.185Z" fill="#B28B67"/>
  <path fill-rule="evenodd" clip-rule="evenodd" d="M326.591 409.625C325.131 404.856 258.741 387.926 258.741 387.926H253.3V393L299.049 416.305C298.988 417.057 299.025 417.852 299.173 418.69C298.842 435.967 306.231 448.874 313.547 461.653C318.331 470.009 323.084 478.311 325.626 487.744L342.434 485.235C341.945 483.982 341.17 478.332 340.112 470.607C337.443 451.129 332.966 418.459 326.686 409.816C326.664 409.786 326.641 409.756 326.619 409.726C326.611 409.692 326.601 409.658 326.591 409.625Z" fill="#1F28CF"/>
  <path fill-rule="evenodd" clip-rule="evenodd" d="M257.101 430.146C252.915 429.307 249.06 428.559 245.762 427.98C224.456 424.24 218.243 412.828 221.916 387.926H261.172C267.585 389.77 300.91 403.755 318.201 411.193C329.644 416.116 326.037 433.864 319.556 438.483C319.521 438.766 319.404 438.958 319.197 439.045C294.626 449.235 273.674 448.475 260.219 447.987C254.584 447.782 250.264 447.625 247.544 448.341L243.283 434.889L257.101 430.146Z" fill="#2B44FF"/>
  <path fill-rule="evenodd" clip-rule="evenodd" d="M232.557 440.874C232.487 439.705 231.503 438.766 230.341 438.906C228.871 439.084 227.026 439.385 226.066 439.854C224.316 440.708 221.245 442.929 221.245 442.929C222.235 444.959 239.034 479.427 239.034 479.427C239.034 479.427 244.427 478.555 243.308 475.307C242.189 472.059 241.503 469.884 241.503 469.884L240.802 449.52C240.782 448.957 240.302 448.521 239.74 448.556L236.853 448.738C236.853 448.738 234.147 446.546 233.282 444.772C232.828 443.84 232.636 442.21 232.557 440.874Z" fill="#E4E4E4"/>
  <path fill-rule="evenodd" clip-rule="evenodd" d="M333.327 500.688C332.246 500.238 330.97 500.712 330.586 501.818C330.101 503.218 329.563 505.01 329.563 506.078C329.563 508.026 330.212 511.762 330.212 511.762C332.469 511.762 370.791 511.762 370.791 511.762C370.791 511.762 372.373 506.529 368.965 506.112C365.557 505.694 363.303 505.358 363.303 505.358L344.706 497.062C344.191 496.832 343.589 497.073 343.374 497.594L342.272 500.27C342.272 500.27 339.117 501.743 337.144 501.743C336.108 501.743 334.562 501.202 333.327 500.688Z" fill="#E4E4E4"/>
  <path fill-rule="evenodd" clip-rule="evenodd" d="M314.224 394.863L291.274 377.999L286.201 390.549L308.927 399.979C315.355 407.535 318.949 410.684 319.709 409.428C320.351 408.369 319.849 407.378 319.388 406.465C319.028 405.753 318.692 405.089 318.939 404.478C319.504 403.081 323.821 403.228 327.913 403.543C332.004 403.858 330.811 402.036 329.825 401.137C325.649 398.635 320.448 396.544 314.224 394.863ZM193.87 424.579C195.979 420.299 203.159 378.581 203.159 378.581L218.194 378.64C218.194 378.64 204.268 423.625 203.159 426.377C201.717 429.953 204.166 435.148 205.826 438.67C206.083 439.215 206.321 439.72 206.523 440.173C204.219 441.205 203.112 439.957 201.945 438.643C200.627 437.158 199.233 435.586 195.949 437.115C194.681 437.705 193.481 438.403 192.308 439.085C188.258 441.442 184.536 443.606 179.474 440.48C178.672 439.985 177.793 438.119 179.917 436.661C185.211 433.029 192.839 426.672 193.87 424.579Z" fill="#B28B67"/>
  <path fill-rule="evenodd" clip-rule="evenodd" d="M245.886 315.448L252.107 314.38C275.19 334.335 284.671 372.669 312.965 392.977L306.155 401.424C257.07 395.342 244.904 348.583 245.886 315.448Z" fill="#E87613"/>
  <path fill-rule="evenodd" clip-rule="evenodd" d="M218.765 393.686C218.765 393.686 256.183 393.686 273.813 393.686C276.328 393.686 275.854 390.051 275.491 388.217C271.294 367.05 254.912 344.232 254.912 314.101L239.034 311.609C225.901 332.746 221.359 358.771 218.765 393.686Z" fill="#DDE3E9"/>
  <path fill-rule="evenodd" clip-rule="evenodd" d="M212.576 408.806C210.102 414.752 207.676 419.94 205.39 423.925H193.584C192.314 382.828 207.862 351.205 220.874 332.138C217.985 331.931 215.377 330.721 213.729 327.745C207.925 317.265 210.021 311.496 216.224 309.599C219.634 308.556 222.842 309.268 226.681 310.12C229.823 310.818 233.388 311.609 237.834 311.609C237.836 311.609 237.837 311.609 237.838 311.609C238.269 311.609 238.661 311.638 239.017 311.693L244.286 311.994C244.286 311.994 265.678 384.546 256.086 408.806H212.576Z" fill="#FF9B21"/>
  <path fill-rule="evenodd" clip-rule="evenodd" d="M212.576 408.806C215.822 401.004 219.15 391.898 222.354 382.494C223.546 392.85 225.532 403.252 228.838 408.806H212.576Z" fill="black" fill-opacity="0.1"/>
  <path fill-rule="evenodd" clip-rule="evenodd" d="M448.86 261.314C444.194 264.126 439.61 265.485 437.458 264.93C432.062 263.539 431.565 243.798 435.741 236.016C439.916 228.233 461.381 224.841 462.463 240.261C462.838 245.612 460.591 250.388 457.271 254.286L463.224 282.033H445.932L448.86 261.314Z" fill="#B28B67"/>
  <path fill-rule="evenodd" clip-rule="evenodd" d="M439.638 230.884C440.034 230.647 440.862 230.148 441.282 229.968C441.382 229.924 442.077 229.428 442.096 229.434C442.623 229.612 444.148 230.268 444.279 230.835C444.299 230.878 444.319 230.918 444.338 230.953C444.554 231.346 444.753 231.749 444.942 232.156C445.357 233.051 445.715 233.986 446.057 234.913C446.724 236.72 447.303 238.569 447.835 240.421C448.377 242.308 448.838 244.216 449.353 246.11C450.094 248.835 451.042 251.493 451.778 254.218C452.248 255.957 452.509 257.717 452.386 259.507C452.385 259.529 452.384 259.55 452.382 259.572C452.381 259.581 452.38 259.59 452.379 259.598C452.358 259.874 452.328 260.15 452.289 260.426C452.254 260.663 452.219 260.9 452.181 261.138C451.509 259.797 450.996 258.32 450.451 256.918C450.398 256.781 450.347 256.643 450.298 256.504C450.122 256.22 449.943 255.938 449.762 255.656C448.62 253.883 447.474 252.116 446.379 250.311C444.409 247.064 442.458 243.748 440.123 240.767C439.434 239.886 438.728 239.019 438.047 238.132C437.66 237.626 437.283 237.113 436.918 236.59C436.657 236.216 435.522 234.913 435.933 234.131C436.143 233.73 438.61 231.497 439.638 230.884Z" fill="#2C2C2C"/>
  <path fill-rule="evenodd" clip-rule="evenodd" d="M441.157 230.033C440.772 230.163 440.959 229.361 441.333 229.079C443.061 227.772 449.669 227.298 455.42 228.492C459.272 229.291 463.752 231.282 466.829 233.841C469.603 236.147 471.511 239.845 472.493 243.418C473.524 247.17 473.68 251.081 473.106 254.928C472.98 255.773 472.709 256.578 472.557 257.405C472.387 258.337 472.3 259.233 471.997 260.14C471.811 260.694 471.495 261.238 471.337 261.796C471.156 262.433 471.266 263.022 471.398 263.669C471.613 264.725 471.88 265.778 472.258 266.786C472.827 268.3 473.518 269.717 473.951 271.288C474.527 273.378 476.936 280.179 475.175 282.033H441.657C442.501 279.731 445.035 277.021 445.547 274.557C445.849 273.105 445.993 269.935 446.025 269.819C446.78 264.612 448.255 262.126 449.179 261.224C450.102 260.321 451.333 260.044 451.396 259.261C451.658 256.024 450.371 252.922 449.427 249.9C448.302 246.299 447.477 242.609 446.318 239.02C445.804 237.431 443.157 229.361 441.157 230.033Z" fill="#8991DC"/>
  <path fill-rule="evenodd" clip-rule="evenodd" d="M454.173 245.388C454.445 239.909 454.173 237.768 452.909 233.757H453.689C454.921 235.349 455.951 240.217 454.793 245.388H454.173ZM469.447 245.13L469.447 245.13C469.583 244.797 469.722 244.457 469.866 244.107L470.362 244.346C468.798 250.064 466.897 254.478 460.367 258.178L459.859 257.823C466.035 253.481 467.359 250.24 469.447 245.13ZM460.188 238.291C460.123 238.787 460.06 239.27 459.999 239.742C459.061 246.986 458.466 251.58 453.233 259.911L453.826 260.092C459.562 252.366 460.471 246.06 460.742 238.336L460.188 238.291ZM465.837 261.772L466.345 262.389C463.804 262.921 462.076 264.79 460.095 266.932C458 269.199 455.621 271.772 451.696 273.392L450.967 272.95C455.251 270.723 457.244 268.509 458.984 266.576C460.786 264.575 462.316 262.875 465.837 261.772Z" fill="black" fill-opacity="0.2"/>
  <path fill-rule="evenodd" clip-rule="evenodd" d="M474.729 342.879L447.655 431.563L434.54 506.984H424.257L438.115 342.879H474.729Z" fill="#997659"/>
  <path fill-rule="evenodd" clip-rule="evenodd" d="M484.415 342.879C482.576 391.571 484.74 416.688 485.152 421.112C485.564 425.536 491.199 454.221 504.542 508.469L493.584 504.698C472.498 454.944 465.312 429.087 462.894 422.553C460.476 416.02 454.052 389.462 443.624 342.879H484.415Z" fill="#B28B67"/>
  <path fill-rule="evenodd" clip-rule="evenodd" d="M501.901 504.08C502.983 503.629 504.26 504.103 504.644 505.211C505.129 506.612 505.667 508.406 505.667 509.476C505.667 511.426 505.018 515.167 505.018 515.167C502.761 515.167 464.439 515.167 464.439 515.167C464.439 515.167 462.857 509.927 466.265 509.509C469.673 509.092 471.927 508.755 471.927 508.755L490.523 500.449C491.038 500.219 491.641 500.46 491.856 500.981L492.958 503.661C492.958 503.661 496.113 505.135 498.086 505.135C499.121 505.135 500.667 504.594 501.901 504.08Z" fill="#E4E4E4"/>
  <path fill-rule="evenodd" clip-rule="evenodd" d="M434.271 504.08C435.353 503.629 436.63 504.103 437.014 505.211C437.499 506.612 438.037 508.406 438.037 509.476C438.037 511.426 437.388 515.167 437.388 515.167C435.131 515.167 396.809 515.167 396.809 515.167C396.809 515.167 395.227 509.927 398.635 509.509C402.043 509.092 404.297 508.755 404.297 508.755L422.893 500.449C423.408 500.219 424.011 500.46 424.226 500.981L425.328 503.661C425.328 503.661 428.483 505.135 430.456 505.135C431.491 505.135 433.037 504.594 434.271 504.08Z" fill="#E4E4E4"/>
  <path fill-rule="evenodd" clip-rule="evenodd" d="M478.327 342.879L466.815 388.062H431.655L436.897 342.879H478.327Z" fill="#69A1AC"/>
  <path fill-rule="evenodd" clip-rule="evenodd" d="M484.802 342.879C490.484 359.942 486.96 388.062 486.96 388.062H451.08L441.214 342.879H484.802Z" fill="#89C5CC"/>
  <path fill-rule="evenodd" clip-rule="evenodd" d="M523.953 365.605C521.266 361.664 503.16 308.636 503.16 308.636L487.544 310.89C487.544 310.89 513.508 366.11 514.991 368.678C516.918 372.015 515.211 377.495 514.054 381.211C513.875 381.786 513.709 382.319 513.572 382.795C516.001 383.495 516.925 382.107 517.9 380.643C519 378.99 520.165 377.241 523.633 378.296C524.973 378.703 526.261 379.227 527.519 379.738C531.863 381.504 535.855 383.127 540.44 379.329C541.167 378.727 541.78 376.759 539.47 375.613C533.715 372.757 525.266 367.531 523.953 365.605ZM389.378 362.864L406.824 340.341L415.167 350.993L395.887 366.316C391.782 375.344 389.19 379.36 388.111 378.364C387.202 377.523 387.411 376.433 387.604 375.429C387.755 374.646 387.895 373.916 387.488 373.397C386.56 372.212 382.444 373.544 378.592 374.975C374.74 376.405 375.386 374.327 376.088 373.191C379.419 369.637 383.849 366.195 389.378 362.864Z" fill="#B28B67"/>
  <path fill-rule="evenodd" clip-rule="evenodd" d="M449.332 271.084L443.014 270.894C438.115 306.556 391.462 336.953 390.198 350.204C389.734 355.064 393.458 356.964 391.908 358.643L400.752 363.376C401.887 361.603 405.192 364.089 410.96 361.215C416.728 358.34 455.04 311.693 449.332 271.084Z" fill="#DB2721"/>
  <path fill-rule="evenodd" clip-rule="evenodd" d="M458.206 262.613C460.367 262.154 462.491 263.534 462.951 265.695L463.596 268.727C476.461 276.015 508.986 298.624 523.459 347.188C524.979 352.29 523.947 355.282 523.122 357.672C522.558 359.308 522.091 360.662 522.604 362.217L512.515 366.584C512.349 365.406 510.901 364.695 509.031 363.779C506.314 362.446 502.707 360.677 500.864 356.4C499.118 352.346 496.688 347.317 493.845 341.743C494.745 349.528 494.274 356.871 491.893 363.232C485.955 379.102 437.388 369.439 430.437 355.077C426.728 347.413 429.443 340.16 433.034 330.567C437.592 318.39 443.562 302.443 439.594 277.102L438.283 270.935C437.823 268.774 439.203 266.65 441.363 266.191L458.206 262.613Z" fill="#FF4133"/>
</svg>
